<mxfile host="65bd71144e">
    <diagram id="-panerx5BUEtHvOSNwMQ" name="Page-1">
        <mxGraphModel dx="1046" dy="574" grid="1" gridSize="10" guides="1" tooltips="1" connect="1" arrows="1" fold="1" page="1" pageScale="1" pageWidth="827" pageHeight="1169" math="0" shadow="0">
            <root>
                <mxCell id="0"/>
                <mxCell id="1" parent="0"/>
                <mxCell id="12" value="" style="rounded=0;whiteSpace=wrap;html=1;dashed=1;fillColor=#cce5ff;strokeColor=#36393d;" vertex="1" parent="1">
                    <mxGeometry x="250" y="170" width="750" height="420" as="geometry"/>
                </mxCell>
                <mxCell id="14" value="" style="group" vertex="1" connectable="0" parent="1">
                    <mxGeometry x="250" y="170" width="210" height="280" as="geometry"/>
                </mxCell>
                <mxCell id="9" value="" style="shape=ext;double=1;rounded=0;whiteSpace=wrap;html=1;fillColor=none;dashed=1;strokeColor=#3333FF;" vertex="1" parent="14">
                    <mxGeometry x="33" y="30" width="120" height="250" as="geometry"/>
                </mxCell>
                <mxCell id="8" value="" style="aspect=fixed;html=1;points=[];align=center;image;fontSize=12;image=img/lib/azure2/databases/Data_Factory.svg;" vertex="1" parent="14">
                    <mxGeometry x="59" y="100" width="68" height="68" as="geometry"/>
                </mxCell>
                <mxCell id="10" value="Azure Data Factory" style="text;html=1;strokeColor=none;fillColor=none;align=center;verticalAlign=middle;whiteSpace=wrap;rounded=0;dashed=1;fontColor=#000000;labelBackgroundColor=none;" vertex="1" parent="14">
                    <mxGeometry y="170" width="186" height="30" as="geometry"/>
                </mxCell>
                <mxCell id="11" value="&lt;meta charset=&quot;utf-8&quot;&gt;&lt;span style=&quot;font-family: Helvetica; font-size: 12px; font-style: normal; font-variant-ligatures: normal; font-variant-caps: normal; font-weight: 400; letter-spacing: normal; orphans: 2; text-align: center; text-indent: 0px; text-transform: none; widows: 2; word-spacing: 0px; -webkit-text-stroke-width: 0px; text-decoration-thickness: initial; text-decoration-style: initial; text-decoration-color: initial; float: none; display: inline !important;&quot;&gt;Ingest&lt;/span&gt;" style="text;html=1;strokeColor=none;fillColor=none;align=center;verticalAlign=middle;whiteSpace=wrap;rounded=0;dashed=1;labelBackgroundColor=none;fontColor=#000000;" vertex="1" parent="14">
                    <mxGeometry x="19" width="60" height="30" as="geometry"/>
                </mxCell>
                <mxCell id="13" value="" style="edgeStyle=none;html=1;" edge="1" parent="14" source="10" target="8">
                    <mxGeometry relative="1" as="geometry"/>
                </mxCell>
                <mxCell id="65" value="&lt;font color=&quot;#000000&quot;&gt;1&lt;/font&gt;" style="ellipse;whiteSpace=wrap;html=1;aspect=fixed;labelBackgroundColor=none;strokeColor=#36393d;fillColor=#ffcc99;" vertex="1" parent="14">
                    <mxGeometry y="210" width="22" height="22" as="geometry"/>
                </mxCell>
                <mxCell id="80" value="" style="shape=singleArrow;whiteSpace=wrap;html=1;labelBackgroundColor=none;strokeColor=#3333FF;fontColor=#000000;fillColor=default;" vertex="1" parent="14">
                    <mxGeometry x="-30" y="220" width="240" height="27" as="geometry"/>
                </mxCell>
                <mxCell id="15" value="" style="shape=ext;double=1;rounded=0;whiteSpace=wrap;html=1;fillColor=none;dashed=1;strokeColor=#3333FF;" vertex="1" parent="1">
                    <mxGeometry x="430" y="200" width="250" height="110" as="geometry"/>
                </mxCell>
                <mxCell id="22" value="&lt;span style=&quot;font-family: Helvetica; font-size: 12px; font-style: normal; font-variant-ligatures: normal; font-variant-caps: normal; font-weight: 400; letter-spacing: normal; orphans: 2; text-align: center; text-indent: 0px; text-transform: none; widows: 2; word-spacing: 0px; -webkit-text-stroke-width: 0px; text-decoration-thickness: initial; text-decoration-style: initial; text-decoration-color: initial; float: none; display: inline !important;&quot;&gt;Process&lt;/span&gt;" style="text;html=1;strokeColor=none;fillColor=none;align=center;verticalAlign=middle;whiteSpace=wrap;rounded=0;dashed=1;labelBackgroundColor=none;fontColor=#000000;" vertex="1" parent="1">
                    <mxGeometry x="430" y="170" width="60" height="30" as="geometry"/>
                </mxCell>
                <mxCell id="23" value="" style="aspect=fixed;html=1;points=[];align=center;image;fontSize=12;image=img/lib/azure2/analytics/Azure_Synapse_Analytics.svg;dashed=1;fillColor=none;" vertex="1" parent="1">
                    <mxGeometry x="540" y="210" width="60" height="69" as="geometry"/>
                </mxCell>
                <mxCell id="24" value="Synapse Serverless Spark" style="text;html=1;strokeColor=none;fillColor=none;align=center;verticalAlign=middle;whiteSpace=wrap;rounded=0;dashed=1;fontColor=#000000;" vertex="1" parent="1">
                    <mxGeometry x="477" y="279" width="186" height="30" as="geometry"/>
                </mxCell>
                <mxCell id="25" value="" style="shape=ext;double=1;rounded=0;whiteSpace=wrap;html=1;fillColor=none;dashed=1;strokeColor=#3333FF;" vertex="1" parent="1">
                    <mxGeometry x="460" y="328" width="220" height="110" as="geometry"/>
                </mxCell>
                <mxCell id="28" value="" style="edgeStyle=none;html=1;" edge="1" parent="1" source="26" target="27">
                    <mxGeometry relative="1" as="geometry"/>
                </mxCell>
                <mxCell id="26" value="" style="aspect=fixed;html=1;points=[];align=center;image;fontSize=12;image=img/lib/azure2/storage/Data_Lake_Storage_Gen1.svg;dashed=1;fillColor=none;" vertex="1" parent="1">
                    <mxGeometry x="477" y="350" width="49.23" height="40" as="geometry"/>
                </mxCell>
                <mxCell id="30" value="" style="edgeStyle=none;html=1;" edge="1" parent="1" source="27" target="29">
                    <mxGeometry relative="1" as="geometry"/>
                </mxCell>
                <mxCell id="27" value="" style="aspect=fixed;html=1;points=[];align=center;image;fontSize=12;image=img/lib/azure2/storage/Data_Lake_Storage_Gen1.svg;dashed=1;fillColor=none;" vertex="1" parent="1">
                    <mxGeometry x="550.77" y="350" width="49.23" height="40" as="geometry"/>
                </mxCell>
                <mxCell id="29" value="" style="aspect=fixed;html=1;points=[];align=center;image;fontSize=12;image=img/lib/azure2/storage/Data_Lake_Storage_Gen1.svg;dashed=1;fillColor=none;" vertex="1" parent="1">
                    <mxGeometry x="620" y="350" width="49.23" height="40" as="geometry"/>
                </mxCell>
                <mxCell id="31" value="&lt;span style=&quot;font-family: Helvetica; font-size: 12px; font-style: normal; font-variant-ligatures: normal; font-variant-caps: normal; font-weight: 400; letter-spacing: normal; orphans: 2; text-align: center; text-indent: 0px; text-transform: none; widows: 2; word-spacing: 0px; -webkit-text-stroke-width: 0px; text-decoration-thickness: initial; text-decoration-style: initial; text-decoration-color: initial; float: none; display: inline !important;&quot;&gt;Bronze&lt;/span&gt;" style="text;html=1;strokeColor=none;fillColor=none;align=center;verticalAlign=middle;whiteSpace=wrap;rounded=0;dashed=1;labelBackgroundColor=none;fontColor=#000000;" vertex="1" parent="1">
                    <mxGeometry x="471.62" y="389" width="60" height="30" as="geometry"/>
                </mxCell>
                <mxCell id="32" value="&lt;span style=&quot;font-family: Helvetica; font-size: 12px; font-style: normal; font-variant-ligatures: normal; font-variant-caps: normal; font-weight: 400; letter-spacing: normal; orphans: 2; text-align: center; text-indent: 0px; text-transform: none; widows: 2; word-spacing: 0px; -webkit-text-stroke-width: 0px; text-decoration-thickness: initial; text-decoration-style: initial; text-decoration-color: initial; float: none; display: inline !important;&quot;&gt;Silver&lt;/span&gt;" style="text;html=1;strokeColor=none;fillColor=none;align=center;verticalAlign=middle;whiteSpace=wrap;rounded=0;dashed=1;labelBackgroundColor=none;fontColor=#000000;" vertex="1" parent="1">
                    <mxGeometry x="545.38" y="390" width="60" height="30" as="geometry"/>
                </mxCell>
                <mxCell id="33" value="&lt;span style=&quot;font-family: Helvetica; font-size: 12px; font-style: normal; font-variant-ligatures: normal; font-variant-caps: normal; font-weight: 400; letter-spacing: normal; orphans: 2; text-align: center; text-indent: 0px; text-transform: none; widows: 2; word-spacing: 0px; -webkit-text-stroke-width: 0px; text-decoration-thickness: initial; text-decoration-style: initial; text-decoration-color: initial; float: none; display: inline !important;&quot;&gt;Gold&lt;/span&gt;" style="text;html=1;strokeColor=none;fillColor=none;align=center;verticalAlign=middle;whiteSpace=wrap;rounded=0;dashed=1;labelBackgroundColor=none;fontColor=#000000;" vertex="1" parent="1">
                    <mxGeometry x="614.61" y="390" width="60" height="30" as="geometry"/>
                </mxCell>
                <mxCell id="34" value="" style="shape=image;verticalLabelPosition=bottom;labelBackgroundColor=default;verticalAlign=top;aspect=fixed;imageAspect=0;image=data:image/png,iVBORw0KGgoAAAANSUhEUgAAAXIAAAEuCAIAAAAcCg7SAAAAAXNSR0IArs4c6QAAAERlWElmTU0AKgAAAAgAAYdpAAQAAAABAAAAGgAAAAAAA6ABAAMAAAABAAEAAKACAAQAAAABAAABcqADAAQAAAABAAABLgAAAACpk9WYAABAAElEQVR4Aey9B5xkR3Uv3Ldz9+SZ3Z3NSVlCAQlJ5CCiiQaTZEAghDG2wY/nj2fws98zn98zOHw/GxGFQBISIJAQwghJCCQQSqCwymklbZiZ3cmhc+6+/f3/p2739OSe6dszvT11d/b2vXWrzjl1qs7/ngq3yigWiw59aA1oDWgN2KcBp32kNCWtAa0BrQFqQMOKrgdaA1oDNmtAw4rNCtXktAa0BjSs6DqgNaA1YLMGNKzYrFBNTmtAa0DDiq4DWgNaAzZrQMOKzQrV5LQGtAY0rOg6oDWgNWCzBjSs2KxQTU5rQGtAw4quA1oDWgM2a0DDis0K1eS0BrQGNKzoOqA1oDVgswY0rNisUE1Oa0BrQMOKrgNaA1oDNmtAw4rNCtXktAa0BjSs6DqgNaA1YLMGNKzYrFBNTmtAa0DDiq4DWgNaAzZrQMOKzQrV5LQGtAbcWgVaA4toAAsdc63j0nrHhuEwFomtH2kNiAY0rOiKsKAGACYAEeJIBZYohKkIWDC5frBuNaBhZd0W/RIZV5hSKDrGs/lk3lSxu7yuLo8L1+rpEiT04/WqAQ0r67XkK/KNTV3QuCnyH0NxgwMhg6ncD45E/ms4diCWRbDT5Ty/y3/Jrq4397b4nYiLJlEJX0okVEqe9bGONWDofYLWcemXs47NoggRhoO7RhUdTvTkH0nlPv/U2I+PhovwWOSpnIobAt5/OmXTx3d3ehGJCMQkFX0ugkllwvpiXWpAjwSty2KvyLTgiHJQEAofhGiRNs2vHQ5ddyQC0HC6DB5Op+E0XG7nRDr3v58dvWsiQQeHuEKfBVDEf/y1mksVHPTlutOAhpV1V+SzMgwPRYWwDUR/Bbhi3DSS/G5fWDDCaZp4Ao/FxNOCCWwxJtL5Sw9NwZ0B2piSXCAGydmUmkVf365DDWhYWYeFPjvLAgqmwzDhcTgNx2gmd1X/ZCiZAWpYkFNEPQFewBMByNBv+dVQAn0uACHxVfAQ2CNRrPvZLPT9utKAhpV1VdzzZlaBgxO4AkwoFIs/HY79djwJ9KDzggOAwV/8lz/2xpmFYuGqvvD+WJbujTxlYkbVh9aA3ix13dcBAQJ2jEgvifF8PPvtg6Fsjr6HdJfgYiZW8I4Y8kQ4dWlfOGMqNBFoUQiz7lWqFaC9lXVfBxR4iJ8BV+WK/tDT0TRaPxKslEPImAYXPsKB7pbizwbDd0/E5THRB50zusOWuln3h4aV9V4F4Hfgn+mA11G8czxx3dFYgSPKSxyIgb7bsXju24dD0XyBrg2BhQ0hfWgNaFhZ73WAaACMcDijucLl/ZGjiawTvSpVaEUSGrePJX82RIcFtzhbrkwVyXWUJtaAhpUmLtyqslZCBOO/hhK3j8Thb1iTbZdKTRxxOaKZ/Lf7Qs8DjAw4PLpzZSmtrY/nGlbWRzkvnEtMRwEiDCRzlw9MhjNZzHurfuI1Gj5Ol+sP4/Er+sM5k3BUjZuzsCz6SZNoQMNKkxTkyrJBj8NwpArm1UfC90+kMNetyF7XZdQKfgxUNK49Gnk8CkjSXSsrK4dmS7WMCtRsWV+f+RF3wvIqeM3Z9/vCmUsPRwuYDce+EbSCJFJV+pGoTsfRRO5rh6ZCOfTdVjosoIM/PTpUlSqbKZKGlWYqzSrywoFkNcuNbgZwJGMWrx6YmkyoObXoHFlO/4jyTnA2izcejd42yg+FiCT4IzjRlQGLKsTSUZpKAxpWmqo4q8sMTZ2GL/hy62jsvwYxDV+1ffA9kDypjpCjiLVX2BVjOB3xbPbqgdBYpkBvp2JAaDnkquSqozW6BjSsNHoJ2SgfLNxyRaQVBM9iOJW/9MDUZCaPLhaBBzxYlnOBLw0BI6hF6Op13TWW+HrflDhBCrJkQoyNGdCkjhENaFg5RgrKDjHZPgF4CKZIE8Vx5dHQfeNpLHjAnlsnekaW3w/CRhNGk4AuRjpf+OFA+NEIPhRCKD98xsWyvB87cqlprL0GNKysfRmsogQcqoE3AYvHIioPhTM/7I/mTaAJxn8ANk5xVeDTVO+wsD1FH0g+f8bXiYej2WsGIqkCUUatmbAMYquoCM2qrhrQsFJX9TYiccCAs2ikTPP7R0PPRlJOF1wUroogsrI5IzBRpeTi+TBuqXVlmN8fCN0+zml1JFV+XiU9Ha0pNKBhpSmKsfpMwNyBAEbxt2PJnxyJIh1aQwIlqibwZnkHGzmEEEXJMFxTKfPSQ+HRbI7zbtm40se604CGlfVV5OwEMYyprHllf2Q0WeCcWpsVYMIX+t144meDCS4nR+IaWGxWceOT07DS+GVkm4SCKewIuX4ocvtoTHpTl99Hu6g4RC301+YL3zgc2h/HqpTgaTdwLSqAftgIGtCw0gilsEoySP+HcSiR/dqhcCybx2QTWRDbdu5wT4xnoxlMY8kVAFvaW7Fdw41OUMNKo5eQjfJJP0fx+wPhAxEs1IRPCuti8lxY2+ko5M1rByJ3T4ER7vWxvjSgYWW9lLfCkN9OJL93JJLFcLKaUGJ/C4W+CcZ/4AodTWYv7w+PZ/II0g2h9VLPJJ8aVpq4uEu2LJNSkM9YzrzsUKg/msHa+fQpaP6lOPaqgZNvsd6C8+ajsRu5QD++GVIMwK8+HO2VX1OrTQMaVmrTXyOnLtkv8IPeiaN481j81lHMKKn4Ysf+8V/havknRjJXwHar/amcC+z5hL4MrjS4NHLFqV02DSu167BRKRAyFLQYmFP7fDz3tcOTiWweHR+q71bm1CKOmLptmSgTBHiZhtu4bzz5o4EoFnkCB5l3y/aX3Uxtk14TskUDGlZsUWMjEoEd0ysQK4Z/cN1Q9A/jqZKrggn7hdLHygp67M0C6hU+CQKMYPKK41t9oUfC7LuVr4TwSM1nsZejptZAGtCw0kCFYbMohAvgCpbUNx6PZq7tD2NvsRILmn19XIZSlw1ZYa4dV4wbiKe/1R/Cvs7AFZGgLEZJHP3bXBrQsNJc5VmRGw71wKadjkS+8B8HJp+P0V9AkKwpCcNWvR22Wzjo01OR9pe6pptyy3Ds5mEs0I8HwppnfTStBjSsNG3RKn8EuPKL0fhNwzGsYG31ohhcGpJPMQhsBdmoBIESkpcGGLtnTeDKRDL3tYOhoVQBLGXebSmajZw1qYbRgIaVhimKmgVRHkKZDHtVHNynHRsVRtJ57BYmHgKsXZm0im6711AmqFCMvKQpZDwwlbxuKCS3xJaynPqi+TSgYaVZylRAZDozYrYYfrn2SPT33KcdvaVrZsmcI2MYmbz53b4IluPGl82qi2VaWn3VXBrQsNIM5QnAmP5YmDcY5mG/ypPR1BV9oaTap30tTZktIqfT8UwodVV/KIkPhdjLo4+m1YCGlWYoWjoiykxxlsXf4J1goaYfHI1yn3ZOVFHf5axRjwZlg7vE7pwfH43dM5lUDaRmUL3Ow3wa0LAyn1aOuTCYKRCD1gufRNocDuPuifRVAxGG0lfAEvkoa4U9q549CsAJLNgOfiqd+9bhqSl8P71m0qx69tcfQw0rTVTmaFlwYj6WlDXGsrlv9k1OpnJYtZarKVlrSq4RrNBNsWAE81juGE39dDjeRHrXWZmtAQ0rszVyrN7PRIybRuK/Go3RO2EDCQfOvFmj3IEvWVMUw4EPCC47HHo+jgX61WAzhaKTJc95o49jXAMaVo7xAhTxxSZVRvDdsHEgkbmyD9u0c6U2WjKPtQIUxV1BhoIRrpnw+FTy2/2hgsxgsYTnz9oKqUTVZxs0oGHFBiWuOQn2gBJBaKb5YvErh8IPjCc5jrvmks0nAMAO+z3/19HofZMpzqaxMIfNJH00hwY0rDRHOTIX6BSFld4/lfrFIObUNu67H7NpnC7jUCzzjUNTkRyW6eZOZfy8WR/NogENK01SksARzNMPZQtXDEQGYlioiWs3NexBD8Uo/mI4esdY5W7wDSuvFmx5GtCwsjx9NWpsQghaPbeOxG8YCGPvU36H08AHXCksppvKm186MHUwiR2F4K7oqtjABbZM0XRZLlNhDRkds1aBKcPp3JUD4XgOkIJulQYvWfFXDMcjE4lrBsIF+RyxIVWrhVqJBhq88q0kS+sjzXQLBz218ExypgOYcu9Egp//0GYbv6tCXBaH4+ojsUejGWQBYpdyZY0O6SHnY7Qya1g59gqOIz4c+JFfMUTcPB5NXdYXznKhJjVTpaEbQaJ07CjiRGPoSDx12cEpLN8tgkN+5g4fRlo5O/bKR0usG7THYB3gYLJM8uCcWqKHkTeLV/ZFhmMZtn6UnyIPGj1zAh1mofjTodito+i7dWIBOc4Uxn+FKo2eAS3f/BrQ3sr8emnsUKwjqZo+6qf4C/TUDsWwOK3MkRfZrcm1jZwPOCUYrSo6Xa5w2rz6SHgonXNxAQdCJubMNb671cjKXVvZNKysrf5Xxp1rxML0sPAaym8cg8r9kfFkll8qWz0q4s6sjPaqpWJzR+WCayb8ZjT6o6OcbsMOFmYPJ30cqxrQsHJMlhzNkabHtsL3j0R/PRrjjmJipVZ+uKBkYx8UX7wuAomRLTiu6Q89EUnLYLOCHA0sjV2CC0vX8JVvYdHX7xP4JLLOACzwyVj2qv4wdlCf2ZdSWl+loXVEXKFPQmw0AYNPhDJXH4lkkBUJFtk1sjR0ES4knIaVhTTTwOGcPMa5KVhm7XtHpp4q79Ne2W44JvpW0LuMbNDtkj5oo4hFnu6VRZ7orog71sDFoEVbUAMaVhZUTQM/QBuINodZKtf2RWV/42P+rc4MGI6RZPbfDk6OcTd4dh3BjdHHsagBDSvHXqnJ5z+OVMH8dl9kNJWH3yIv9mMvI3Mkputy91j8v0ai4sCwfTQnjg44BjSgYeUYKKSZIrLrAQb3/aOR3+I7PY7Dwvbqa37gYdn5TFHsveOYuWGks8Ur+6MH4lk9wmyveleTmoaV1dS2DbwwgowGwsFE9uuHQuFMDp2b9UUUAZS645ZSDAbMgSxOx8OTicv6sMgT0bLeubOhSDSJORrQsDJHJQ0eIPv9XH80+iw2S8fyB/V3I2DYcBxc4iPVVzdkQYclXyj+ZDByf6i8EX192WrqtmvAbTtFTdBeDcCqZXYHO2nRq4JB5bsnE9/pD8H2BFbq9DrH+wZzebkx/PYW98W7OrcFvHdMxH8xFMUEExm+Vg0je7mzGUSHxeUciOW+0xc+tc3X6XEx1NIpJVqVBpm9ZbjuqGlYafgitywXM1XQkWKEcoXLD4cPR7NOLKpSlN2UOQvO9lzAKQJRc3uL5+tnbnlzb6vXafzx1tatfs9XD0zRpahL4wscmROMAGHJmOsGoxdsbLloRwfuVLeLxhTbi7lOBHUjqE6KtY0s7IwGzuEedj3cPpa4YTgm8/SVEeIjYHtdBiU5nQK0sN63veMdW9r8Llp7r8/92eO6T+/wcbqJbfmrIMR8Sl6AWoYjnc1dfjh0lENd0yJJhMZf86EiU+vyUsNKQxc7mxt0GziJw2UUj6YK3ziMJfXZbyt9LHAaYHP2FyIHrY3i6V2Bi3d1oGMFXwQiAKC2J+D+yz1dLohSD7URx+QPmeJaVM6HphI/PBohihjc6EhPZKmH1utB0/4aWQ8p1zVN2DddBxiV8cMj4XsnsXEX2j7sgqARotPW7oPOQdF0u4y/3Nt1WpuX02SkRSQcjXduaXnb1hY2yerisiigRI4hBT4UMrEzyUPouyWOAltEtLrwtVuJ65uehpWGLn8sQUJAEYN+LJq+ZiBi5mDkWABJGTUwhW9xe/PAjhPTfMumlndvaUNvDujDpOkwYCOOYnGr3/vp3T2bg76iWbB/agmXfABiMl/ItdNwvhBNfbM/lC5w1Qf2uRBgCS76aGQNaFhp5NKhbLAwGDTm1F4+ENrPfdr52kaQ5bDQ0Go/CF0KnkAYayltCvgv3tOFzhSAFmxbDBm7bliRXr2x5S1b2lxYzsDmA84X4ENwg/mizwIk+fVw7PZx7gZv5ZVS6KOhNWB7zWjo3B6LwqlX9C1j8RuPROk1EEbwY13ZliMYM82VZ3goH9je/tZNrcAUAS3Fi9auZq/4nMZnj+s6ocNvmljwpRLXUJ0qb5crHdKWKqRklW6ayzGSyGHu35FUzuqdFt9puaR1/NXUQKkUV5On5lW1BqSv1BjN5LH6wVhSPv8Rl6FqAtVFlEYHEIF2axb3tHkv2d3pR9Wgt0CYIOAQL2DQuC9iofwz2/2f2N3ld2LfeIQoKMEZESVudWyriUWPxeW8Yyz2s+EYSdvPoRopdJzlaUDDyvL0tZqxaUU02eLNw7HfjsQ5+a3krtgshkAHm1fFos/t+rPdXWd0+BR3QRW2uHBwVRT5YXvEUfzw9rZzelpwIahSF0xRXMEZbtHX+mQ3eA4JKXH4UB+NqQENK41ZLpZUKJ6notlvHEafpfWqrpe4WAQfQz6O4ss2YAZaO4GDc97wgw5Ui2fZK5ERGQM9L587vmuD38MxqnIk2+XDKBQlcR2IpL5+eDKZ58ZqJYlsZ6YJ2qMBDSv26NF2KrAcWDXA5DsDoUen8HWM2JLVWrGXG0ijO4UuQIfX+MvdXVv8HlNWyUUQx5ZLVmwZs6EW6Eao8cbelj/Z1oZ2k3Qhk4JILb92nYBrIgDYXtMfeyiUVmzsIq/p1EMDGlbqoVXbaN43lbh+KCp2BaOGgaP3w26zQqvCCdMlTLxrW+cbNwVlBEYaOrRnAA45lsGFMrDdQ9emxeW8cEfHrnYMNqvWEuKTlJ2HMCd3wxFNw3GbDGWlLWYnD03LZg1oWLFZobWQK5suXv84onnzP1+YGItlOVFFdSjAxuRRLVxmp1UYUTR3t/o+urOr04tP+9SQMg2a/+UAzFiNIATJpQCP8Yqu4Md3dno42IyeHz4rpbDplw2sElnD+aux+E+HgbNKDXRkoA/bVWKT6OuXjIaVRil7YgrtQ87srXDcNBy9fSwpPZRlwylf2Cg2vA/OevvwzvZXdfs5e3caGaavSvzKISpW0e10XLi947yeABorxB0KbuuBRhj/BLTgsGTM7/aFXohnwabkIanZerYy1cRq04CGldr0Z19q2AksFbCBaWd49x9OZq/oiySyJq7rgSVlwcm0WDyzq/XDO9o9mDbLxk354ZIXbP2c0Or9+K6OoA9NKfSnLiPxktQlAqooQQXYVzQwr9d4YCJ99WA4yw0QqTP+4aSPRtKAhpXGKQ1lHDAgA/sRf7s/dNcEdv/hJPb6HWAJYGjzuP5qT9dJrV4gCm10GdBgyfwnW9vfsKlN7Nt2Exf44JeGkNXF9VgM80d9kQdD2FGIg1fiq7A1VD8tacrL1YCGleVqrK7xMZjKV+++SPraI1EY/KrYSvGtm1s/sqNdtTTk/V9tHoEj4usUOzyuzx3XvSHgg3XbjStCjyvLQBkAPCCt81A0892+cKQ82MyWl91sq9WBjjePBjSszKOUNQoCiGCMw4jkC1f2Tx3hPu11+Dy5Im8wRLAMeN2f2NPpw1oHFq7QeitiLXXJr5th7cWX9wQu2tkqC8ctlWTZzyGPW3pt0PMD743rWd04GPvVaJz+kThYyyapE9RTAxpW6qndZdPGy9+4bTTx06Ox5Vj2stmUE2Ar9U/t7npZdxAh9DvIdVl9K+I/iG3jc6GLd3Se2R2Q6fxlDrZcAOmAeexNFvnYORzL5b5yeHIonWd3kC1MNBH7NKBhxT5dLpMS1pkvWTAcBc5mBaaMZXNw70OZApz9eloLhpDxbY/jRR1+LKqC6SfswOAEFfyb+fFgtZnC/HrHKe2+z+zt8rlYqRQAEA7ksloy88dTmoBsJWoU1fnwZOrKgZCwUFgINdL/4qHO81PToXXXgIaVuqt4QQbWqAltQYyQZXHVQPTeiaS0KnDHYJsPsKLJ0fr8HuNDOzr2tqCntgZOkFGlxwCWw3j75vYLeluBMZI5PHPVwcSlvWYUs3nzmiPRfaGM4A11BdhBNy4yxyxqaKES1ubQsLI2ekelF8dAcadjAmf+kXD6e/3hdN7aKrRkr7ZKyCEVcVVM8/VbWj+6s0PVgJUDmFgw7ZkfPxfxodAndndubvGZBZmdy4GbldNeOOec0g/CB8OZq7jIE9eCgSCUpcxNBFuYgn5SRw1oWKmjcpcizc5HecUyYs7Ebn6h56Npp5O2KOZhWcpSdKp+TpOjtcP+NwV8n9zZvUkWaipbYtWErIiUjzkQsui5lRVn39bb+r6tHQIqMvhrv3kLS2kQgfZPBqO3jsXBzmpRylxfyZGclpslHd8ODWhYsUOLK6FB21AtEunjNO6cSFyH5aBhFbRUdZQvSgE1/gpMcezEMC7Y3PpHvUEE1MKDeZiWlG4JpPc5nZfs6Tix3W21RWqUeZ7kABAiMoU3jPFU7juHQ9gNHgPPGIdSUM2HtWRsHqY6aBka0LCyDGXZGpUmzsEXzpx3DGcKlx4OT6TQcgCqwMHHUQ+zoA8BV+Wkdv//OL4LH/IoI6wpXyCBnJTwCUIj4EVtvk/u6XK6QF/ciJoYzJe4pBsOyTuxyFPqppE4RBBXDM9EivnS6bDV0YCGldXR82wusDf5o13j4mdD0VsHZfcf3Cm0saHHsWx8tDiFYgAAl8v5sV2dL+4ICKfZgi37XpprdFTUgSssFMllKzvPx7g1EJKQIweyRoMv/1nBtfwIlBTzpvn1g1PPRDNc3U5wzfIDayGt09agAQ0rNShv5UmBHJyUD88ErsqhZO7bfVMGRmhhcaoFVLbSlbNAShqdnBU59hEj6FU9LR/ajoWaaO+qC0ei2XUCURMO0Va/+2+O727D99DWp4uoafgTq7cBMaellVwUHw8lrxoIESgF4QSyp+Poq1XWgIaVVVa4Yif9G2JwmULxqv7I05EMhmdtNTcwgpXhBAAhrBBBisWAx/2xPZ3bAx4ZSSG22J1/YSdw9aZNrdhfVfATgWoyGyWRw26+ReOng7F7J1MkTrjkf32slQY0rKyR5lHpsW26w3HvVPKqvlAB+7Tbb+J0T+SPTRH84cX+3m1tb92EBWh5JwE2G59QJoTBGWt3Oy/e3bkby+KKH2btmgZ8oUNhJ18wxVrd/fHslw9MTeUK5G55fWtUuOuerYaVtakCfJkaznDO/G5/eCiBhZrYw2K3KHhnK0DhHh243BH0YvnrjV43GingRePmr50H3QQccMSILMVX97T86U58h4hA/Ck0odNkJ0uhBYYgeu9Y7OdDMVFkXbjYLnazEtSwsjYlC8sClPxkKPrLYax+oKzOdkkUUsEn4i6IXrdx4c7Wl3X54aWg1FnwysxtZatYkjBxEvtGOz6xo+OkTi7yxKWi6JOBs/35BWHM94ml81cOTB1IZAmjYKWPNdKAhpU1UDysCj21hxPZHwxEI/j8hxMuYAQItvsQktxb1XSc2RX4y73dbjAWPMFZQYD9LMFBmjnkVCzuafF9ek93h4/TWKTLuA7ZlDyg2WW4XPdPYE2JSA4ZFv/F7txpelVpQMNKVWqqNRJNCf/5p/pRsZnxj45Gfj8Wt+bU4rnNDRIaN2hydQXT4fUYWHF2VwCf/8Di8Y9/NHu7D0VaUaWXRKfFgR1CXoepd5yqppa6E9nsZW05J8V8ofj1vtC+cBrZk/l4ltrJDZf6WBUNaFhZBTWXqjMRhWYG23scn/8MRPKo+QxADwgqvb1lAbL4c/GlXXS8YbPsvLEKeZ3JQiFXwOX89O7ujQE3RELeRTDIZu8Bgtj+BA6RYzyZ/Q7W68SHQtISE3b28tLUltCAvVV5CWbr9bEyJDYNUPfxEo3mC9/oC7/AJfVp8/Wq9/QcsLys2Rtwf27vBvTUcp3ctSgD5PHlPcGLdnXRfYAE/NSxHoIAQ/HBNL2wGwajd+BDISuz7Luql5LXQp+Nz1PDyqqUEbCEfOiaoGmAyebXDUa43gnDpF0iVzzZeEgLBCzfv6PzpVhdiZRLhmYjl6VIgSWm2AdcxsU7O8/s9GPNBLHy+kjCcW2qOJbJ/ccLE/2pHBSPASmRQX6WklY/t0UDGlZsUeMSRMQlQRz2Z4xm85dj0890nnsqs03APgBJb7OlgRyM7NTuAFY/gFVzWfy1gBVkDeMy+ITytHbfn+3tDnAfImRb2n1LqG1Zj0s6xC9hxLh/Mn0jBpuRZfERlaKXRVFHXrEGNKysWHXLSAg4QeepQo9rsKT+eJJDQXyv0gDEDDBysQyCS0YFXdD3uJyX7Op+cYcPRiwlbSuPJYWYEQGszT/e3Pa6ja3SkzrjmR03Sp+ceEe1Go6sWby6L/xAKIUvm0W5ohI7OGkaS2pAw8qSKqo9Al+gaPCgrj8RzVyNhZpyai4JKMt0NQUutVb7MmSAECliVPmCjYELt7Rg9EU1vtg8WJsDnz5RhG0B96f2dPYGPXDT7HadqGRiNA8COJa+fDyU+A4WeeI2ZYLp9GL0sRoa0LCyClpGnWaFzpgmPod7Opzl7j8ElHItV4igziuWx7IoGBWu0KHQ7fN8ak/PloCXZkWTWzurInOaOv7e0tvyll586KjuVGZFcgTUdICIUC0R4TQWw7h1OH7/VErlv/RE/9ZdAxpW6q5ixQDzTW8fT1w7EOHkNLEjWxmXjdIyUbgHf7yt4y1YVlbQhN7L2h2yuhJBBdjiMZyf2t2xpQ0OS1kN7GYVB8tOKakRLGSTyP7HwamhdA4awMqUgmxrp4h1w1nDSt2Lmm6JUZzKFL7TFx5LFGDwbAFMuyq2CIByLAMI/AJzS9D7V3s7/QAzGC/ZlXHHFnbLJMK+JX71KHIUz+vy//c9G1wyzEwggbzyY7uQ2KsM2r5lKHLjEAebxZkhJ33UWwMaVuqtYdZmOOQ3DMXuGEkYTrRO5OVss53zdc8Pd+WADf/Frq4z2/n5jwSwQbC2uELIIL5RDNj6+7e1n9cTLOK7bUAN0aZ+h4HFur/ZFz6I7zn5kYQ+VkMDGlbqq2XUY9jNoUTu8v6pZL4AE2IfQ8n+bebNz+uIWuf2BD64vR1LtMFVAUOxWjFo+4d1q8qBuAkqJiUEsu4Muj+9Fx8K8U6JZw1VVUWvykhQdAH6gBpeiKS/2jeVoepthvMqRVlv0TSs1L3EMaX8m32hx0LY/YeVnK0SVm97D9omPhgGZXzU99/2dh/XIgs1kQke4U/5K2LC9nKuihpzDdeJiEqk4/VbNwfftbOTflRZwqpIVR8JmYV7woUo84XCDUdi900m1yr/1QvdHDE1rNSrHOE2iM04HpxK3TgUVQs11c28abAoSzB9/eaWd25pp+0iZ5YZ4RpX6q9e+V2CLiUQMUQwAEynx33R9q5tQS+WqBRZQcBuuBUYE9UYw7HsFYenwrl8HdgskfV1+FjDiu2FjmqMPg5ACg05nDe/2Yd92rMGNyRVVg6dW+ZuI29QLJjmjjbvJ3d1tbrZiTCHx5wAG9kvkxTn3Tocr+72f3gn4IVwWEKWZRJaLLpgKaGKRYH9DX4xkvj5MPtuVfeWPFAu1GJU9LMVaEDDygqUtkgS1tUiP/9nnYZybx6O3jgUkf4D1GcFLPabNyjiD2upfHBHx5s3tmLVhXo0tBbJ9koeFR0ep/EXe7pe3BVADwvUNg8SroRuOQ3RRMCV/cSArVjGvLI/cjCREVDjrGc8kFHnchJ9YY8GNKzYo8cSFVg3Ki3ww4Rmj6bRUxtJZnCNOsyBZkbje1pqfCmNHb9c7f7EDv+f7+okB/yznYMdUlbSwNcLQJJdQc+f7ek24F5ZnSyVUey4BsAS3gVAXObd47FrB2Py8SGxBjxRNHaw0TRmaEDDygx12HLDd6PDmTEd3x+I3DOGnlqu6sowHHQjcAFkse0g3aIj4HX+xXHdsk87GVjsbGNiPyHiHk3b8e7NrW/Z1CoMeGvfURpeh/It/XP1me/3q0We6NHhBUA004fdGtCwYrdGYeOoqobxWCSFZcrouMB42HMg70Vcs4pjWRA7D7hCb93c8qFtbcpPEWOx10TtlLZMC9JCGd1e9/84vqc3KKtSlp/ZcIFvDEFF6Z+AjtYpygHL3Hz9UCiR5/fcJl3IY0BRNihjdUloWLFR36yg+A8IyRQKVw9Eh+JZ3JZ6I9XL0+buFfCCtXQEPVgkqcuDJfUlO3wB838jH8Q+KosSv6wneOGOjplSq5zUkgOl8BKF8lyhIju8boMXycIqTespxdK/tmhAw0rtaoQB0APBfxliIIzcPJr46dEI3RSQp4HwuXBSCq+xEaQgA2f5cxoXbe94HSatEsHIXbGtPWN1paCEFO8Nu8EbF+3oOLULC/RzpUjpDVHMVU5rEaRMARcsJnR9hdKFr/WFRjI59u/UQlunXUADGlYWUEx1wcARMQ81h1VeiIZjLJ3/1qHwWDqLPSbqU2sVVZNWUSie2RH8+O7ONresPk1so/nUh291SqkuFmSXwRhAI7X44g7/xbu6Wtwezrsl2MhoWh2yIeDreGg8ceVAmLoqw051YutY1WhAw0o1WlooDl0DVksxY9RXqaXGtUOReyfiTgMdhDV6JQvxJU++fM0idv/Bhspntful+UP++M/OSPw0+kERkQtRIX//dFvb+RtaoDP6EMgA82C/AgkrTiOZM68ZiD6J+UTgcQyAcKOX5Sz5NKzMUsiybsUoWE/xR6/FjZ7acOr7/eFMAbM5UVsRAYe9Jg5q+CNrMDh/E3ol2mAaBDhpP4CfoIq9TCUftp4kD6I7kRi2vcWPBWI6egJutck9ubFBZO9Bglx/0+l4PpK5eiCc5AL98kKwl8/6pqZhpZbyp+niPy1EXq5pM/+9gdAjE2mn023/e9aSVN7ldJCKXT73p3Zhn3YvvgSGKeLjIy66zZd8CdBqyVzd0woyiuJkvIxqfPumtrdvbkf/hzBH5VTatVEUlpWjwGoPSLvs8NQdWABUVEZW+rBJAxpWalAkTRseAz0Vng3j95PZHw/GMa7JYB7AFhpPDTzmJCVhRdyZL5oHEvloroCPlV1odOEs7MiPQjX0wbYP3TzoihcKDANu46+P6z6xVRZ5MmRnAnu1p1QHP08+eUxmi9/mh0IF9lLZWkoNrfr6C+f64he/WH8uzckBFVGcdHQGoLVujGby/7B/8pHJFBzskkmrqoo7++osKPGjQjZ5MoXiI5HMoXh2Xyw9kMxlC2arx4lF9tVT/ICxwB6vyu0JkaYsUvli9cuILhWl4pkHJIA0m/2ucK74u/EEVCpOF8PlENMv35VCl/kr6XkiQ2BLXzp7Qqv3jPYAb6e7cmpls0ypmi065wg1W55WMT+Wq8Ia6fh2X/i/PTGczVOfq6rTAnHN73Vu93m2Bj2ndvhf1e17RXfrFr/bK/gDedBzAVFhqDSlMsRAysYyH37zDSFfSGY/+cjw70ZiXElPlSbkVO4EL2zTriJ2Vnfg+nO3A1xYmtRIw+llFWu0Paw0rNSkR1RAmqvDOJDIXrhvcN841n8rWUJNhJeRmB0R+GSO//G6LTpcxgafe7Pfc2an74JNgZd0Bnf4PV1eNa8X49Ey21eS8CRmtAxm9Y8KBESOrjsaveSR4USuACAUFCmbOluYqjOkdlmgARxoPP7tyRv/35OxDqaohPwaTy8i6rFy0rBSS0mJq0cVGv/72Yl/fW4MRotDTrWQXUla2AEaDTALdOdwxTW+9x1+l7PL73pNT8tbNrXgQ+GT27xesRxAYclR4X1DHfgQAXkJ54t//ujQT46EsEmb7BwAGSs7qmzTMYGkWNzV5rvi7K2v39CiQE0U0miKaahSWkIYDStLKGiRx6ja8BHQS3r3VOqSfUcPRLGoyprrk3gBg8CftY8H5ugVndhC5PTOwGt7Wl6zseVVPYEN4rwIKDJ6wxgQ4Y7QyGaaced44uOPDvbFseEpv2+mh8I5LfYLS4ZFx4d3d331jN5OjwvX1kjUImWvHy2qgTU3g0Wla+yHNEvDEc+bn35i5JrDU06nC++6tRFZTFHAhDap7BK2UkIMEQvhBUdHwPmKnuDrNrW+b2vbrqBXSQvPBtZqv70uXxeW7DRzQLbxhWfG/vP5cVwAbETbfG77QUfPUWzzGN88a9uf7ujAajV4O1R8QGA7w+YnqGFl5WWMJg9GXa4fiv7Zw1jSMIfKSZgRs1450RWmFEzgxwNo/nB1l5IYSh54AOhb4bwvIAjmtwS87tM6vK/eFPzoti62jOTtzGbTWkNLResMMhefj+fe/cDQM+EExs/ZnVu3g7hScLxyU8sPz926M+BlQ0yG2+rGsMkJ6wHmqgqYNVpe6WKuND68POEL9CUzf/f02AuRDOt9VZTqGkmBy1xBFLgQ8PBmdjqNnGkOpXJ/mEreNJLEspjb/G6sTgBM4RpthMZp10WS1FXmGcTFcQB7SgDWG7zuVpfztrE4ELwkU+l3Rrpab8jRcA6mslsCnpd2BYQHT0AbPGHLjL+i3lpZrYv0GlaqKmZUr4pKxTqGyoZad3lf5Ht9YVX7qiLUAJHEQDBg5USWYrncHyaTN48lJzKFoNu1zY91IA3T+mRSsintJ8n76hsVOW4Lup+O554LcTZQyQWrhxIBqvCHik/E86/aENwR8GAxSmKNsLJyXlED6iFBM9HUsFJlaRJYCC34Ly8wYMpT0cw/PDs2nspLfUMDBEfDz1qGiYhDAmeL71+AiOkIp/P3TCTumkxmTROzXeC5qFjynJnj63rVjUrJgOW+e7yuO8YTXHhJyWIZe5UFV300NhLj2bzpdL6jt1WG1UqNQrbNVl8B1UvecDE1rFRZJPTCrbcXLgxHslD8u/3jd40kUN/kGUKBKWoQtEqaqx9NRMdJkEXYEyqRA4wVTabzd04kHwynsKraia1eL2dxCIQKuqy+rOQIUR2OrX73kbT50FQCQqpiYKidB71PrsQiDIcy+ZNafSe3+SWQSAYxrB8J0qclNdDwb9clc7BaEeij4I/+CidW/G4icSt2/1H9iKpasr0gdrBaIq2EjxKVVoIr3sBQsVIA/H+8jvMF8/djif/+5MjFjw7fOwnkZL8pdgZUnthK2NWWhtosOoIu58d2dZze5eeXzXVRMKxAsSJ+jCayXzkwOZjCwDaYK33RXastK+srtYaVKsvbqs+oZZhGMZLJX3Y4NJXK4/XJCa70V+rzHq1SumqjYbBH2QkSlO2EOcBBuISj4jIimfxPBsIfe3jo316Y7E/l4bXIzNZqedgbD54UIO+8Tv8lu7sx24bLx1mmbiOfEnaIs4ns3jOZuGE4SgZ4QkDR6/MvT9saVqrXFwfjVevhuqORXw9jSX3lk4t91vdtxtpdErTyuhQ263daGMhW/pNIJKNCVBoRXvpowQHeCdwvICj+DsZy//Op8U8/Nvyb8XhOpo5U+ixlaWZxrsMtpCHV921tf1lPi+jBci4qdFI7W5UhNTvGkc87ruoLPxJJSQc2yrwKndcuQhNR0LBSdWHKSx3t76djWQwAZbFQEyph1alriyiGDvMiXpRAQYxNyOKqbGkz+VhxZllF5a3KgYpXEZsNIzAr3DwU+/C+oS8dmJzMcpESsTBiK65k56OZ7OpzB7Fg2Fv9rv/nhJ4Ovxcei7iOCJbay/4f+w7xhTAG//hU+mosx8WpyoqBpRz7ODUzJQ0r1ZYuBoLw7koVsDPe1DORJJeUrDZp7fFQ2WW1BdZw1G+xqGmXBIFYmqQkDsKVF8UAFV89LEWoRhyZqIEEgNGRVPbL+8c+8/jYw+E0HRm+u8VxEeOuhlgtccCNBg1Rio43b2p515b2UjZKv7VQXyAtmRrGT47G/jCVorqnVb1AAh08UwMaVmbqY9E71LCHwyns1EHrZlVjhV+VA/ykB4fMYNJyS59BZEBvw7Qk0ssjzxnIjgjVdlGiVimwUGY67BuNfBqZnONHA6EPPDJ400gCzwCvbCqtirFBYvKSPZsxG/gTezrag150t4hXAemgD/vrMKhCecOp3H8emuRu8GDGIH1UqwH7i6RazsdUPL6hHQbmjF16MDSZydKmKP8q1DU16qmGgQkecEXYIuKQMB0YlB88dtg5QnnLZxINUdDPiF5Ydau0raSuRvNYmY0QxNe2zGQHneLBqdQnHz767wem2CDilNzVOKh3Nrgkz0XHSzsDXzi+281lHmbkrA5lQYflt6MJbK4qal+Fsl4Nfa4ODw0r1ekZ1drh+OVo/LaRWMmeKtod1dFYPJbUXUEEYocYNROgC1W6MjAcgj/cqIuCYRYwKuKQc8EsmHLhNPNOGRBGTD5mfDFJadPgAzq2W8p/C8sjbS7CFLKNP7apkBSfQY+mc//r6bHPPTV6NMVNdijcwlRseSJIKPwpTdFjGB/a1nFudwvyB7MX8fjJwbTCbOEqKAVFxTOFy/qm+pLlF4lN1JudjLvZM2hD/lhnDeNQInPVQAiDIjIAhDCoriabQq3FQUMvgwcvFU3xMWgraMa4YM9dfneH24nX9EY/NxXtcjt7fR7s9sl+VfzA6mla8GSciUJxOJPBlFRMOzmSzofz+RBW7ia4AGgUz2kWgAaynI0OpElJlHDEF7gmMl3HKGbNAr5XOJzM/fNpva/oCiiJFV3SsvsQIUQOXgEzzZ1Bzyd2deyPpMMsC0ppN0+LHtQC+s+F0pcPRP7PSRtQB+rFqU4ZWDuydDDXjnvjcoZSVB1C9yQnexSLf/fM2H88NwkrhotAY7fqWMlEraxU3uK68pYxQFNqJxvrsBA+Jy7w22HMagVO+FyG1+M8ucW/O+jCPPotPg++T2n3OgJuV8DgOrUt2GbM4Qg4jVYXJpQgfbmqkxfEwv6ssXwe0ztwEcrlMZaBae+D6exgqvBcLHMgmT0UzyEE27lm6G+JhEjGDYs5CYcSMQwmJQbLZhak5Qiz8OIztK5MM39aT8u/n9qLBaKErTzHw7I4iFeHQwQ0sCr4xY+N/uxISDwmUWAdeFEHRFRjV5vnyhdvvWBjaZEnFJk4UXXPbT0ytSo0NazMr2bgiLycuEojzPfBcPKDDw4ejubgOBBWLOspV2jYntghLXKWYeGW71RCgMwKodXKdFGv173B42z3uNr97tNb3S9q92/1uU9u87V5nJhX6ncaPqfDh46TGe/IufTnl39uaM4swn9JmQVgSn8y/2wsvS+SPhjPjaXy4zlzKpN35AvSb8MTFn6kAYM1xQYx/q/MGnSChtfeVu8/nbrpwu0dWGmTM3KZ9RniSiqbT9AfeNw1kbpo35GBRJarfM6j9hqZstQIpuzAQnvT/NCe7m+dtbnNhXk97MZCEUpflspyjbyaMLmGlXkLVVkRag/+OaP5wheeHrvswBQXf4PvYuGG1DzL3iqtjhHUKAmrH2LR4QEdJvN4XHsCrm0Bz8ag9/Q231ntPqzMvD3gBoK48WacPsoE0UECAlKThRdrsyXAdOx5r8jTQkCSnuXa4CGW1oa/cjCRfTCU3hfK7I+m0bQZSGfz8HPY3StMBS8oDa0Zv0pIZgePTdPc2eL9+1M2fGh7V1AahTNBcF65ag1UGAJQ+9tnRi99PgSZStmslfKM9Cw4ZpbuKRZ58rqvPmfrOze3QQucWmAVQXUlMYPuurjRsLJIMRNDYDw/Phr5s4dHEwWsqS+mhXUmFVrgVsAC7zMVoBwcvrf5iCf+OR07Wn3ndvhPBIi0+F7U7gWUdHlo6ZW8mQDujLSvSvQtI5V4ICTUqvYGSE55EEKar3h5rYM4aIEmsjYtosOBGX5PxjLPJrJPhDP7QqnHIql0OofJ/IIkTIx0kjUkEonQs0NkcXR43Z87YeMXTuxW20CvwhscrUeob38s/ZF9Q/umMkBM0U6lOmu+Fu+SeuJLgse5G1quO3fbniD2MKIu5bB+ambWbAQ0rMxbovJq5hLwxng2/94Hj949ggXKSrqyjEpqslgoh0nk0xWCCA7DwErUAa/rzHb/+V3+49q9J7b4Tm7xoq+kzEyBCKosLRyghDY8jRXVVCot6fCViF/WYV4KEpTTV3Mhtkb6Ck/oXliH4iFUKYiQZvenckZyRcdz8czT0fSDU6l7J1NPRpMpBEEEjlmTKFOIROoHY1RY2f8LJ/d+em9XUF7lZUaMWJ+DCGc4Lu8L/+VjI2ikKF3ZykqyTPWzbCTTxf/vjM1/c3xPSaOCOLaybBpiJVNpmgzZkxGxSNh7sfgfByf//qnRPLtT0KMpvSo0SrKB7mRUCKaGr3xhks42txMbmJ7X7Xtnb/uLOvy9PudGr9uD/hg5pDlDTAIIlQ0P5qG8B8EU1l6FLqoeI27JNQADPKu2BUSGNAZKKf9LVBmKPyWSxKBPQ64CMDwDfpQw6I7BKgGPh9I/HordPh6PZAo5+TrI6Wa3QwmVAFcYyzY3BrzXn7/9tdibnULX/UBJIA9D6ewljw7fNhjFmgkIsfVAJpSupMRwbRZP6fBfd/5O+JtWFViFfNqapVUjNv3+XDWWjc+IBiMvw7FM4ZqBSI5dmXAp0BGBcHmrExcIOqpHd1uLd2fQd06H73UbW17c6e/yuDqwypplXGhJEYxwiLdQromW9YGQsFOVWCJSQWLngj60dsvOSySnNbioCZNViYuiSZHUnyLBGDhAV2GLoB1xiFNBig5MEtkV8ODvtZtaXohnfj0Wu2008Xg0G0lhHgc6kwURBfdwBzU9FkkDVhTNep9ZElyKxfvnezofDqXVYlqQvOJA7mYGVDyr7lJ0BRqcbAw1OffHsl89OPmVM3oxEscAUrF0WB3B9RJLw8o8Jc36KLXlaDqHSR+sQfAScMbBuWFAGCxF4uwIuM/qDJzd7X9dT/CVXcEu7iFoVTLEhW/C6ESTeWueCmQkCzRKaZlMsVdmARKIVaIhVOla8OH8lPnESlFKhfQEqlIwWZQPiVOSgaEIULcgQuQwHO1u5zmdfvx9aveGn43GbhmJ/WY0FknnuYyCxEcPC+L1+lavOlFCwh8+FGrFcvlfe2FSNKPER7C6kN8Vniroib5lIT3jp4OxN/Zy3wIu0L9Cys2fbPXqwTGmS2k0bPa5gz5XMYmXFcxSrNLBNV/P3tB6XnfgvC7/y7qDOwMelTWxZSuXNDZW+8WOcnxElCqMkyAIEklawQ5BGMWZkSgFHotzgSuJRybKBnBL9CAoAQ/4lDRUJHVm3KoPppdkijqIdnmNj+/o+MCW1lvG2m4ajv18JIZ5qOKNud6+pe2C1XFVKA3RjkjpMANO18d2dt48mjiIdQww/E9IUZhTkrrq/C4eEd338FGm0tmrB8Kv7A5s8bsEchdPtE6f6r6VeQueFVZNNbm8P/z3T49HMCZiOAIe91s2Bd63tePFnYG9LZiOhtcVR4t4sMEiBl21+ZKH4IhghNyAHJLzP02DMljB/JGDaCGeEy44Jw935EsLwzXTCAThgqH8YVJJJOlrOYk4RDTpw3RG8gUskXfnWGIyY57U5vvwzo7dQQtha+FSVVpkSEAXv3Jlfun5yS89M5EuoL2KrT8QqPC3KmLVR0InEnTudTn/9YzNn9nbTd7VJ15PMTWszFvaqJkwVZor+ijvmUrvm0zCfs/uCJzV6bO2BBRAUT2fqnKJk7CMisbGlKQkGAh+KFFoMkSLFdVYTNGHRVmvUb7QS1TKaDNvfqsMpBVDKzhBdMyIw20iX8iYDixkzSYgnytPoUqCK4wmKiIzYCevDcdUNv+ehwbvGpbd4AmyqmQkzgqZzEkmqiRt0zirx//Dl2w7tQ27wa+snOYQb64ADSvzlqeYOVClbCRSkVVUmWXLxZp5oCcXccSQCQa8qepQqdkvyg4CJDK52r01QEMK+IonljeTeTNXxFx1LFdGE1KvaF6SEVizFxg76WBSP7pXYdst6OuYUc/Zpyx+C+VU2alSQgpRcTCLPMRZwS9X7GfGpR+aAtE9IIqtjLzQXs6JDMmN+QLSQYzrBqMXPzyUxlxhonQdYIXiMXfINnj/7ckb/s8pvVC7Fcqn+rA0oGFl/qrAWgs7ZNVl76zyHQQFKowH99LQEHBg9RaTWsyulGnOG6M/kRvK5geS+f5UNpkrjGfNcXQYZwvpojGSycAjAHlhQMGEjtiw4djkcXZ4XH6nc5PPhUGoTX5Pj8+J1erRMYR5d+2yiMCsTC4ixqyY07eSebC0HDQamMq35IY+jGhrBqhNp7b9Sg32gxuKSBUDvjz83JOjVx6axLCU0g8RwM4D1ATKOQZo9Pjd15+3Hd1JLA87uTQDLQ0rS5Yia9ICdsgaVX6kqlf5FnQJSiRPe6PdKW9EgmCRadPsS+b2x7PPxdN9sfzBZBYrbw+m8yEM34In0+FPYqtrCbNOpFbqPgBLxRXJxPl3e12bffjW2XV80Nsb9OwMes9s857W5t0su4vREsUQyIQWqUiWfksMVJzpOysWfmZmsTFsCqP4+Hp7Xzj5/geOHI7jQyF+Nmn3IToX/KTOio537ui45uwtAG6riqjQxlCI3XlfHj0NK8vT1+zY8qZEoGWbM2wOFbuEJiWbzRbMibz5VCR192Ty3qn0WDI3kc2PwxVBXyNowBMwMJvXoofkih1/ZhmJ4ieBJdpIj1AGcd4dfoU/KDo9zs2YmOdz72jxvbI7eH5X4NR2T6fbJVsvE2SkWYfmzCz0ZHr2z5bzpqRpyLPKLhzLf3xu/MvPjqNNxAXkZmvNDtGpYDa60Fff4vV8/czNH9vZQe+F2i8jth2MjmUaGlZWXnqoYGXrptNSMj9l1Kx9ZpFrpTiwV1lhKF14Jpb53Xjid+PJo8lcJG9m0RuMeg8LIJRYOMBUK5doOqWShXWdnbggKh3ETmfQ7cQX0luD7lf3BF7dEzyt3Y8NUtEpgyj8qJGyqHzQwyplqPQ7Tb4Rr1RbaH88/clHRu4ZT1gfGtRNUigKHVev2NRy5TnbTmzxiqOoYcVSt4aVldc7Zf+WzcFu2RUjqMAg+sr4Gc7k7w+l7htP3jmReDqSziCabFOOyOyvge3St0BMRcYWSJmdI3bJ0OcAcQAdfnHBQSK3031cm+eNG4Ov3NjykrbA3laMl1vfJkk2SKckFmRt9INoTpQ2MK/krx8biWbz9CnqJrVSiMtw/t3Jm/7x5G7V+0Z+ja+puumkTFjDSlkVK71gzYUTbL3dWamIL+YTkexvxhN3TyR+O5mKpTDtBU8IPaVaxzhSB6Xms61huwkIRytbuGZfijS0BAFL820ANV6f+5WdwZduCKAD8mVdPsz3kywJUqrcKNEtUo34Y+kOP5ixljU/+cjwjYMRwW27pbW0ojSCOTLmrjbvtedue3l3EPMCAS6Wt2c322OLnoYVG8oLb0mACvomQCtjmg+F098biNw/mXommi6i08RVfmkSeywoEQOQayRCVZQnNsiyEAnln4tjZJkgLIBAQ0OECyM+085Wz9ldwfdsbcPe5p0ea266WSwg6vQQ0EIc1jSc6qNKqUcg9O8mE+97cHAyyUmMVnbrIh5fEvgw7M+P7/n3Uze3esiMsFJ6ddSF57FAVMNKTaVEOFGzRxyOqVzhwVDi6v7o/RPJPhnN4ed4VPAszOCnAOhI5fuORwlTGFg/E1A1HfRpCBZf64JBYo+YiwKgcfYEnGd3Bt+5pfVNm1qPa+EW74RNGstC5qLICtW1PDFfKm9YavPzz4x/9fmJcm4rMm6viHSJ8OX65eds+8A27mG0kI7s5drg1DSsVFtArDHTtUaBBVceRLWK5QsPhzPf6ZvCZzLxLKe5suNEPIBqqTdGPMEX+aymWHS7jZPa/J/Y3fWuLa17gl4IiPEOBS5lPZT0obqHFsGdVc0eoRGLPCWyb71/4HAoY/Xd8oeTf+w2fMIKmkKv7G3/6XlbN2LdcjnkbYIr5TytO6zRsFJtjYdNoVLyXYSqwpc7627eLN45mfj+kcitQ/FJfNGLCKhmrGjVkm3AePK+RcVgVt0u44xO/3u3dbxzc8tpbX4EwWiZeRzKu5KI9P6ZbZwa4m2tBPzmoanPPTGKZinhUL7HELntPUmVKM5C+wAAQABJREFUcDix6vDfn9LzDydt5AtHVQBRhVQY8G8Itdib80WoaVhZRDkzHxFN8J9VRJoDxefjuW8PhH56NNofy9Co6LngsarSM9Mee3dskuG7Hw5Pwyqdxkt7gu/d1n7h9nbM30VuMKIkKCLggnuoRhyBBrEeATkOw33q0aGbjkacLicyUa9DJgmg+binw3vDedvP7vCzpsiYmnKO5LZBFFMvHcyiq2FllkLmvyVYSFXFuwhds5gge/1g5GsHwpjWidc3p3TSqlTVqV/9nV+2OoQiI5Ibjmxg2SoACOarmx6X8dLu4Kf2dqHbpRWT9rjyLt0AASDAiuozQkhDmBCabJD+ltHoxx8eHkvlMDdIZvDYLRtzjxLHjq3g5rx4b8fXT9/sVesBKh9lHYIKagUMog71stlIQkfi3NKX7UtkvtIXvqovEk1zNwk4KaJDVCKpQU2SdWV+AqbIkbx8ASKYdNMR8GKxuL/Z23VeV9DPDS6gG+W/VYBMAyiB1RpfSBTNSx4f/fHhSVg/5bf9IKxAVxh+QgeLA+sEfvvFW962GTsKybigaJEKsp1vYxPUsFJV+ZQAw7htLP5vz0/+biwOKOGiQahOdGPkkPZRVeQaPxKshW6HWKJ6IfOtDPjgsrVoHG0Juj60vfOiXR2nt0uHC/POdxQBpmGMSBUItkP66L7BZ8Ip+VCoVFi2FUEZMaAmvnrevqX98rM3b/F7OKOfSgEnubCN4zFAyPXFL37xGBBzDUScfscoPyVRcFzeH/ncUyNPhtKsLdJrK3KpmsqgxrGoWhVWmRXLcMQ+mG8cjliu8PupFCYQx0wTn0p3e9HhojRgWVKFANOaROCMm4pI9biUri5jm9+dKJj4ZkKgrx58KvJkOA+ncruDvrM7/XjhQCfQFeBYwKUerBuUpvZW5isYOidcB4wNG2miYxmPLz83cWV/OJnNY+ecGU7KfASaPkxBDUdXnI7zelo+srPtQ9s7Oj3szYX1Un/KnPimnraqEgCvmnogC4+BZO5PHxr8/UQSUqmQOkkAtYDlqZ3Bn52/9cRWL77Gwtw8C5brxLIhyWpvZZ5ikSYPMQWvO/zHrNn/9ezYNf3hbKHA2Q9IMW0p8yRfP0FiMcbRRPbuqcTdU9xNaLPfjU8Z0XsJNUlfC50X4gxf2PQeVBLocFWMDdzIB+vRtHpdvxxLZAtKgDoWEViOZ/KtHhc+Fuf+C6xBdWTXmKS1tzJfudAO+IcKcfdU+jOPDT8ZwosOXi2GKfGPgCPTVogw6/7ggAuHb82iz+0+rdP/N8d1vWZDcLusHI4lF9B56SJAU0/QHfGG0+tXQ22qeOBSoRcMC1B84pGRnw+G+a6oJ3PkDBVkk5+7Jr1mQ0BG58FwVTJcz3wti7b2VuZRlxosxpvmh0djf/7I0KFYmmYBBBaoKdWQdVdX5tEUoVa5IOgPxeRAcziVv3kkdudEMoTdlRwOdLtgtFX6OHAH06IeRYGroT1p8RBGwBjT1Z6LZe4aS2APkrrCCvNoYInffNbheMsmOEnM+PoCFYeDjWF9VGpA6ruBlZ+vPRL9x/3jI4msdKbIO4jxaBuEF/xfb5WlUk3qGkiLA3PNZDMlDrcXi/h64eHJ1MOTib3tgTf1tr5pc8ubeoIt/CqaqsV/8VlWx9LIBQ0vzKiZK3vdQsALijBvHon+cDD4yV1d1nyeuvFrQMK6ETSjUFjxHY5Uwfzawakv7Z+M5POY/Ka2JZR4qnYiiuo3mJF2Xd7QhEQbyD0upA+FzgFe0JzHgUc9Ae/5nYFXbAi8tbf1lDYfvAalKKS0WpOicxVo7xnd7YAwyISvJbG+54f3Dd03Hqt3I0hlAe2+QqHwhm0d171ke7cXYLo6MGqv/lZOTcOKvEOpQNZB1Ll4vvCtQ6F/fm4iki3Af5fpXmXLWZmiaWY0OevE9pTcIlxMkSBlGZuYmHwRJ8bJmLxQ0YQCcU+1xnAh14oyrvGclNf8gFQ4KDeMiV/kFIo+r3Nb0Pvibv8HtrSf3RXY4HFjP1kVDVqXKR5Wb66kw7XCHJJitiTqrJOVXU6uUc8l8whFb7GkKy/fOZ7Nf+WF0L+/MJEz+aS+OhJx2dIrFjcFPD84d9sbNrZwC8T1BCzrHlZooajYrGmYSpoqFL96YOpLz41HcyVMKZv3rEq9vFup96xwlVVaKqBFRxkGbiAO5LFMbtqmlJWpyBDJolOihipbulyeXPWPjYyhc4X7isB7Mbjk5Yag69wO/wU9rWd2YclL11Y/vgqYzj5BwtI5tVHuicGNpURoyAplADrCqEcpRdyi+VE+sFRFfyr3XDR7w2Do1uFkStyn8tN6XkAi6VEyi/95xrbPntAF3MR9PTk2Fu1137ciFVRs1pnIm984PPkvz09Gc6b4KfIanAEEKys81CeQQt2XikUjwAXtQAyFVVDBB7GB7PiiUzakXt28ZhJJbqUkOTEvoWPJVU6oIgtT69Ga/SA/eFdTIO6zUcQ8ulikcDiSvn4ggpf5+d2Bs9r8x3V4d2MPeb+3N+DGrumljDKPgjKCmfAmoRyVM7kSdUEv+GO40k62aB5JZg8mC4fi2YfCyXumki9E84Jo6vnq6IESSUEVn4qlIzkTrpmU6+pwX3su6x5WUPgysyBtFr9+KPSl/RPRPPwU9KegGsgcFVZsmD0q5UqtlJTE+6CJKEsRlmJrYg4chaQgqA9WHKkZuMcfkvCB3NCI8M5HEwHjGRg4pfCCRGUcUlVK4ImpGuSgeNzZB8KyNxNSofPBMZYq/GIw9otiFAvobQu49wY8vQHvxoDrRa3eE1qw/Qi3OtroKw1PVwArdWKpBiPHhZF0biRd2J/MPpPITiVzRxK55xPZCSz0iYMKF6YYAK/80oLP6ncgu0AWlulIJhvOF0otvvpxbCzK6x1WlDmij/bSg1P/AkzJmXipso+Wcyv4DpT6ISa98oLDS5q+OTp/QQNNLVRwa+tmXBBcwIhgAZZY3wTMEISZVDI9lTIgCJscsh3BLgcjD3pID9ELbFaIXPCuFBE8UlvkNBCoSIaQDeYUUjN7/F/gB4wIpPU5BhPZwVjWUUwit61+1yafu92NbdWcHS6X0+3o8nm73SwXaAVKRIpEoTieymLUKVYwI7lCNA8DziUycEyEoAUloEx9KkRbeQGuJCWKA8hiHM3kASu7HB7WNGZ8XRzrHVZQiVFNf3Ak9s/PTcbR9uGSbkQBqfq4QPWkMaNirqA6qKSgQBBAvyRQgD2GToe76Hc5/W4j4MLyP4bf6docdAU8zl0+7zafM2cWsXn4roC7ze2SrsuCy+Eay5mDqQyABmv3H8EWZXkTc1sjmXzKLKLLIJEvcjtVmXoFhALGwFBpTisQui5JSoLwBQ59FqRxo7YlEgSHonG4oWkqHwURT2MJGzkU7HITWNyCjroQUGLREXbLgdw+BU0tdhjSipleoRCIMGlJDD6o20FGEFIKwFmczBXjeA+ss2Ndw4qUtvH9o9H/+cx4PIuFRUrtHFX/iCkKUFhTrDrN6qluUVMQiJqNs3qKH+uRumflZs0vOlzujX7PRuxk6vO0+1y7W+jwb/N7twZc+BAOU8thUzA4bOjL2R3CVm3uW66NoAuHRYFbjlSJUelC8UA8N5TJYkGppxMZrCoyni4MpAA3WHuJL23Ci2RB1XGRXIkNerOOcl5mhdtyK4qBcmjkcii1WeqiMPjP7AmIEDnY9EGwnGCjokjRs8qEuHZc2tPSiXL6ZEekEgvFiGeEiO9ZKp3pJ/W4UiKTqQtZ2oCNmVwCpvXg1ag01yGssPJKHcaK+I5fjyf+/umxiWSWfbSzConVumx+6kKd8QB/cg3/gTCATg68koBGAkPCADa9s8W3t8VzYqtve4v7+BbvcUHvcS2eHs67JOkljzJvxEQCAo2k86ofkPHwGxyHI6BIRfKFF+LZxyOZxyLp52OZx6KZsSSaFRYZ1nZKV8EaT3gnPzxJDNKykiiy9pzJqMxaZWQuFyuC0p8IPjeOEocP5X9ZulLMMhMrF3Jv+SnTz8rJ6nChxAcvXBR7vc42N/laaFMHfg1Icn3BCspZ1TI0F+BWPxBKff6pkcEEV1HmhqEo+VLlXLioEAMvH86cRHS8VdloMrGKLSoO5yb0+L1nd/rO6PCe2BrY2+LdGXDtDfoqq5SqdAvTt56Q3sxIS4hWLHa4jJd0+l/SGUAujqRyzyQyT0ez901gV9bEOD4DhJzwctB1pKCPaAgGCJQ3Oa/xX+VuCVYz5dJ3czRARUK9VPgWv7vTmqEzJ1rzBpScyObN4cyc0WCkC8I4ksp+6rHhW4diTieggcGlmMq6SnczfhGPYALLZJcpDRVteb6OegMefF/3uo0tx7d6UZN6fS6P1ZnKl6oyU+ltZHIEKJueQbuGG0VfXt/kBeJlIBvNFPqS2TvH47eNxB+LZCPZPKMZ/DIGE+4t54U5BrgAK8V1pyoQpI+VaQDqhfbQPkMXc/HSF2/76+O6Va/Xysgdi6nWGazQoGl3kVz+C0+PXXE4zOEVeUeLOUqFgNUtcEjfCzayw6+J/dJ3Bd27W70v7Qq+fmMLFtfAfl3YL0YlBQlQRtNI7FvxwCUulLmWLxbgtPxghV1skQE2eCIzooUATK5ohrLm/mj26iHsi5YciGfj2CcAO31iAIkxgSOQXLCO2Zeky5dBpxANCKagh97Ed8ye75+7FdstoTLIlN/1oqF11AiirUjnAgzoOwOR7xJTYHN4keBJyXvg61riyY91hYecD24UC3ilG9tbPSe1ec/rDrxlY+u5Xf4A+jgssOAkdNBiowIdpiQJ+iXXhKYuRHFRh0MyIAxKnorwVtkrol8GQ7abNrpfvTH4QiJzy0jsl8PJ+8PJaFqaRQRDyK5GphXEKFnrIGjTk6QzyDpQMIund/rP6vCVwb3ps17O4PryVpTFXDcY+6vHh7Ctj8AF7AeGjidi7sAPvut54Ie2pf6bxXa/55U9QawOfU6nH5s2yF6i6hnjTycrYYwEiqugcEv6bSzSJFq6RDwbDkrCwyKsiAMxFVeUsnpGsGMGjWI4Z/5mMnH7aOK20Xg/J4ywm4jmIMgotPRphRqg9ouOVq/z387o/dSubjY1pSKskNwxmKyZYUXMmZ4D7UhaJXBEH4+kP7Rv8OlQ2sC7WZU/J1PA7OQssWFd6GaQDk4DE0xOaPf90aaWV/QEz+jwY465KmWxYyEwP0DI89Ij3JDVKh1lbuWLEtrwF/8pi5IHO5M8EErfMRq7ZTj1VDSJL/HwiMO2Kpq8eCUuE5YuFFlFQIXLw3V6KmujrAqOC0KRF+7uuOysLRwGIqqsYvk3QEE0M6zANMSJoIuPeQ8Ai0jBxFJvP+iLYH4IR3BQEzguosoBEVj47L7FbE6XqyfgemlXy0XbO87p8mGtMzWRBI3k5qgmyCVyqhr8eXxHk8r/fDh+9ZHI89F0EnNV0RGNTiTCpsJcwo0FK1QSDYctQ4WrSn/r91yCDCoEqjHMgrmr03/dudvP7/SjmrFelaKsEyU1LaxUeJ5sAeAvZzq+fGD8n5+ZQKMXpSuggtJmiwD1AQXPj+bNQpvPfUKb9/UbW9+9tf2kNl93aXRQumArXvRNUUGoGX5ci8zgI2PMf8/fOhL/wdHoI+FUPI25sNi0BDUEf3iuWpCIqiCmKfJvQyakClEn0BG1ZRawW5DnX0/vvXBbO54xlM4f323r52haWFFFiPJU+AHL+c14HAv5jCTzbP7wAd4hgi00Lb672wPu1/QE3rK5DWsF7sVm5jQ2Wh0eNrUXywwCO6T2M8tYneRnI4lfjiZuH4klMjnJPN/B0mhUlsJoqo9GrtbzibVD5R/IgRdWb9Dz5VM3XLSzE5OY1KtLmuDrS0XNDCuqUHGGTQymch97dPCO4YTCElURZAiYE757gr4/7m19w8bgG3pbNnDLG2ARaoj0MeBmul5YFaiZ6ghhkxnkrBWiC1GEeY7kzVtH4zcNRX8+Ektl8TaWSKIZnvj6lUCEr+sD2ZfeOyqleEpn4J9O2fiOza341EteR5gbRF9F6XT96KmJYYXFKr1l6CNw/OOzE/93/zj7UQRX6Mejt8UwMPHkbZvb3rOt/fwOf5CzTtQ7mUbEtPRjaGlI1bx1Quq/WAXzKvABrFEto1C28Idw6sbB6M3D8VEsNSBeDdRh4nNBFbl59VJdzlQHLecXXrC55f+esgn9KVLxUGVYeUozh6oj1iyxmhhWYChiMIZx61j8Uw8PHU1if2/mFzDj8jhPbvO9a2vb+7a242udVn61wc4F2JKMBQmU8J3MqtHMkFKqx4KeBFEchFG5BPiqPt1IrvhkNP2jI5FfjsUPx7NY0sBwoedFjaVJmhKdil8SkdvyRcXDY+ySNaFCZOtWglBDzG6f6xO7uj9zQtd2v9d6L6EalfpTZiWuoNO0l00LK6zRhARHPG/+6cNDtxyJuFxGngM5xontnrdv6fjE7q5TWr2qYKXBM6PiNG2BLzNjUCO0KJ4L5g2bD4bSl/eF7xlPHIzDc8F4meqmEkVDfxwegscndkQwUa0k1VxaJuOGiE7vlm09q8+VHUwSwreOvKKgHPOEjsA/nNSDDlp07mO7S6WrhhB/7YRo4lm2xBT8w/IlWL8DiyBhEf0zugJ/vLXt3dvaz2hD4xc1hK9nxNFVYaEaCHBgU5BQAVfO+bLu4DkdvsejGUyi+9lQ/NFQkk0hmBJ7J6VLl3GJKPKHcWjcofdK3usL8WjQcMkFAQVZUcs0EFNYpwgzrFF+v/viHd0X72o/txP722OVKTyzalSD5mm1xGpab4WVQbpd8Yr5yWDshsHoCa2ed21FDcBkahoBnktlZy1ZLW0f23xgVTAqARlq7JFI+udD0RuG4vvxCQDn0cnyJ7QruoTMqlIwVX0MHgREiF12uJAZZh9tHDxwuQ1Mj7xkT/f7N2MpO7psAjeIwdlPukY1L6ygdiv0gLfqcGCTvTaX4ZZFalkvZNmkY7Cyr6nIAsaQAArEJQdQi45nE5m7xhNX9keejKQyeQEXaRhhBwtpO0gaAZk1FX35zBWsCDLi03NOvGa2iz6P85wuP1rQb9zYgkmSyB4O+HECnnRXNKZQBVDK8lV+TKTgKwSlrMBFsIXei8zOQJbR4NfHMjVAiFDNAOpVfH7qFYGHk7lfjSWvGww/OZWayrAzgu0icWzI49irYgKEyvGg00v0aPW5z+j0X7Sj/a29bTsC6D2QmTwS0dIjK5yuV1RGE8MKfHa1WioKW3Ueqi4U1PFyXai8tuqG/llcA7Awqo9zNfhKwh8QRBo9RYxG3zqWuHk4dt9k6kg8gziGLIzGN/riRBvsqQUqtA7UomKLz/3ynuC7t7a9Z0tbrw+AgvwgR2oCIeIItEr3ErtiRBcNlqHVFqeJYaWkSpY0q7W8e+S39ET/1qwBUa5QEVPkbbJQuGsy9evRxK/G4s9GU7IqOCyP0AMLRIwK7wV3auSICaeFwaXEk5+K8OkYVV6VyYKI6iVRdIUmkaFMnLWDvScASqu64M7cEnS9akPLH3HidctmX+krU3psFfJOk5y+qlK+Zo22DmClWYuu8fIFq4JVSjMAwz/mE9HsPRPJGwdjf5hMZDG0j8dYtRtGy2gwTM5v5iALLxCMG2X55YwhCH8IrPkAS9JXrTJBE4QoKRCqIAWc4JtwlxHMyiliWtOHtne8akPwjHZrEYxZYFKzTM1MQMNKM5fumuQNTgDbn9Z8sCK2K30ynLlxOH7neAL7hKWx6iWHpIEj9CEFbJSYsHvaupyJATYfinwZX9iUk9Ycu0jAk6xbvO4tfte53cE3b2o5v9uPRYi90m6WXiQ6XDaL1LzkNKw0b9muac6k94GegOrDzJrFgWT22qHobaOJA9H0eApL6nIOr5itahnRui1Lp+S4U0hQgzHPaOawtYVP1MveCbCPK4OaZsDn2RrwYlvFd25p/ZOtrdgT2gupha0MJ7OdJuPGGleqrVIaVqrVlI63Mg3Qeq2BN8CHGcs57p5M3TmVfCac+kMoGUnnZEsjODDEEQEYhSPiIljIsjLOaG5JfxqIKqeIMCVXlMjh9XnObvOe2uY9tyd4Xqf/xBZvi1pTRzqARBrgCPtmcWhXhVqo+tCwUrWqdMRqNUCTpLtBg+SAUekWF+i3QCBD8E35vaHkE9H0Y1OZR6OZYW5pBBRAKiaDHfPEH9WnwTB1qOelO/EqGHf6UBFIhf08cE/ITh4XnW7juFb/OW2+49u8x7X7XtLqPwXbwfEhvRjhBAEUhoAM22lIjAA1L6VEZ5qXvppXAxpW5lWLDqxRA5btW5ACq6a1wnGBBSOMnogYMw36aDoHiDmSzD0cSj8aSz8RySSzRWwVkC0W8uhARUo2j8TvUEIxkYQrsLBYyTMFIHiIoW2nAefD63QEPa7tQe9Z7d4z233AlM1+1w6/q8c7PayjxAIx1fKhpCQmpwqqcqlPVWlAw0pVatKRbNcAvQD6A9Pmi71fsQt6NGdOZgr746lDicLBVHY4lcNtplBMY4837g3AXagzWIJN0qFjOOB0AUGAPeioacHMXpe7F8Dhde0KercH3Cdh26aAy+d0drjd/BawdMzlXnqif23QgIYVG5SoSdSiAWXhoFD5wScQB+tUAEiw1TTaJ5FcYRgr7PK6OJErTGTgxgBKinBGNnu9rR4D936nc08ACCMDxIAXpwNz8SpQi20hWbWAbZxpV6QW0XXaBTSgYWUBxejgVdcAzB6HtGk495/NH/7hYrkgwFSkVv7AgERJUPe8io7rfmrihRHqrjvNwF4NKPAgnihQsM5qOAeuibSZ8BiX7P5gPMEPWQ+GQVYc6SJB+wpxrHFioIkFLPZKrKktoAHtrSygGB28ZhqgnyGHwhlihwCIQIm4HYIRxBc5pIdGoQpSlMZxSk+FiPguJSxSqfS5jhrQsFJH5WrSK9QA8UKBhRCwcIU/qrcEVyXI4WdGcj3dHWsxZSR0y+CQ9VDUnJhyQiuS/qmLBjSs1EWtmuhKNCDwUQKMSgKlB9NwMv10Zpi6qzxbMRk0M+o0CX1ltwY0rNitUU1Pa2Dda2CO67juNaIVoDWgNVCjBjSs1KhAnVxrQGtgtgY0rMzWiL7XGtAaqFEDGlZqVKBOrjWgNTBbAxpWZmtE32sNaA3UqAENKzUqcLHk1lodi0VZm2cNK9jqqGOVs7/K7FZHh4tzWSGsrJWmaue7LArLijxX0Q37BUpZsBozODfL9obUSbxy9u2VdiFq9WNXJ/2ojNRCvNp5K+ChtLNiZrUrd8WsFypvhC8k1SK8FkoyL5dF6Mwbv/rA6sWADOXISp7ybfXsao9ZFmMRnaymYHUVo3bii1BQZTFXV0smWVkhKkYgPpfjQgSrhZWF0i83XOW8evmWS7+h4i+rJFYgeb3pr0CkhZI0mqhrWw8X18biTxfScEOFLxtWCnIsNw9YaR1Q4nJh9wbrwK69CMFRCljiF2zz+Xz18Zcgh29OsMel0+l2u+fSxCPwkn2FLXemsqSRBAkrQxbhtTJ1LUJQPcKnMW7PPJLPTYhcqIzMfYSMzA2sd4hSyLzaQ0F4PFy0bd6ndglWSRzCVN4qFghB+eJQkuA8t4YsLgwooP7grCjMSo48zgqppKbkwRmyqfC5kVWcSmtSjCqZImRuwkpGVV6DyyxG1SSstmKpnKTT6csuu+zRRx9VnBBYDQ+fz7dp06aenp7du3e/6EUv6u3tDQaD5WJbPPOKbzgcvu666+6//35ErpLpQoKV2YFOW1vbxz72sbPPPltxQRJ18dhjj33ve9+LRqOVkcvXb3jDGz74wQ8q+RfioujEYrEf/ehHEFtRXijyssIhBmAiEAhA8vPOOw9py4JV0lECDA8P33rrrYODg+XyKkfGBZK/9rWvxaNyYCWFelynUqkf//jHd999NzhCwjIL3CJTqCGf/OQnTzrppHJ4/S5ggX+QI5vNVmYf17BnSPKOd7xjx44dEKDy6ZLyKLUjg8gmMotKokJUQlzDFt73vvcptc+lpiKPj4//8pe/7OvrQ9FUJlfxla5aWlouvPDCzZs3qwg433PPPTfccAOqXKXACJ/LpZoQRQSF8prXvOajH/0oblVINWkRp1pYUUQPHz78m9/8Bmev17vQO3AuY6QFQuOATv1+/65du15yzjmo08cdfzzwZW78yhCltUOHDt18881HBgYMKafKCMu9hjCQXGUHFyeffPIZZ5yh3tuKVyaTQQnde++95ddFmQVqCeoKCvuNb3zjxo0bVfzy07kXo6Ojt99++3PPPafqx9wIKw6Bt3LccccBo1G95oqhQuLx+NVXX33TTTepkipHQ95xjeO+++5Dji644AJcK4WsWJ4lEyoW/f39d9xxxxNPPAGFI2RWKshw7rnnAlbqLQz47tu371//5V8npyaVGJXCKP1MTEx85jOf6erqUpLPEnXxW9jI7373u4A/gP3MynkhHX7tWIQh4E02l7JidPTo0UsvvRSvokq8U+LBsYfKQBCYCEB505veVIYVRIZiUW9VzMXFq/Ip6kYmnYEVgNG2bduqTKWiVQsrKnYul8NFiz/o9nq4BVzVB2o2dIHMRyKRsbHRfQ8+dONPb3zDm9/09re97YQTTgAZpdOF6OXQJCkUgoEAYEVt3bJQzOrDUTxAEOSobHUqLW4RCNycS0q9fKBo5GXu08oQlR2QwgWQdF4rqoxf/TWrKeqmaSYSCVUcC6V9/vnnf/vb3yIOQA1xKus3bpEX1GBUxJe+9KUAd1Udy3EWolljOISB5EF/wOWZB1ag1cVzVCN3JFflkk5n7vj17UODg3jLqcBZlBENuPC6173uVa961axH1dxmc1lgR0swyDcTF2SwABRXqBLZDG11Fh2lfxgI3Jw777wTpYNDSYuYwCO8CqwiLDr8Pv/b3/GO448/no+kGwExkRaVFqkQoqjNYrHcW6wNjE0oQWoFhbI8WIHEyCEAhcdyYEVlCfVbVXE0WycnJ3/8ox899OCD7373u9/61rfO+9YtK4Kqo5eBlyp5l8NruVDaZ4ZmHsyjFMy8ZYNAFWFmosXukITamvNyXizNws/AXcHKQmIoCYGYeH2hHacUPpceogHvHnrooYMHD55++umIQMp1PoQFvUXU1rnlqCSvswgk33f4MLwVWD5yjJKZxRFiQGlQHby5c845R2HuspTjNGiNqtBxAVhBcvxycxPWH1p+JVNGEf3//Oc/v+WWWwRS2LPDaHwkvyoBzM/hePOb3/SB978fvr9KaD0pVVoEVoarpys4C3Pa2ixpqyG17HkrZeithvqsOCrDOHOlYjn279//zW9+87vf/S56TxCwoDqgW5vMcpZIC90uKMlCCVY/fFGFoFcFjnTZqyprvnyh5EUzDc09YNBiyrcva2LBclqAZr3VjmxCJ/fcew/aOLheyPOFGLBt9L0MDAxA0uVKtVh85t7SQGU0CPPwww//4Ac/mP0mAIoQoaSwnQYchzPPOusjF12k2lALaHHtg5cNK7aIzEamKAqIm0wm0R2LnmDVRVqpa1t4rU8i8OEBGcpVgUpRa3EoVaiLcuCvf/3rkZGR9aAlVbWQWbQyFJIu9K5SykHX6e9//3s0WAAx9dBPZUEAv6666qqhoSE0ZMDdOuiXsuBQdPiPJuLuXbsuueSS3bt3I4KEz/B66iHkymjWRV9LikKXR2AYfgs8QvRV/OIXv7jiiivQ8wJllZS62GttSRbNH6EEE7NyCgWigfnAAw+okYi5T1WNVOGIDL8GIxe4xfWsyE15Cx8EnUplpJg31whEhFw2B3RWmAul1UMbqiwwfHPN1Vc/eP8DLieHfnBYvGgnvIY8QLcNGzZ8/JJL0C5DhHnFroeEK6NpP6wgw3OPWcIptbGdCA0RWZzYwA7DY2hblnuzQGRWqsVv5zKtJmRxmnY9XUiSJekvlBDhVN2c9CoMHbHory33EyOyCmcqOXCrrnFGV99dd90FQMeT+UjO4XHMBiCzGB2DAwIzLiln/jpmGbPTwCiv3Zg7XWhK2zhjtO5Xt/2KJTKnVCEfIuCAF/Oe97znzW9+cxkQl1sOoL+CA5i2XEaIbz+sABdwoAWrzuoCelFZqhBResghM5q44urBL4V+0duCmBXRqrtEH3ueTKs5yuLhAtRXwm4poco0kfGyHiplQyC69Jh7+G2lPv65VMtpcaEOEkFGCwW3x+Oa6ZwrJcNy0NcIhwUtIISoA5RLl1a1LocjGjxwJKmTKuZmak1CkF/whROHCgZMYWeFVDMVPlsk4IppQr0YbgMM1Y6501xm1m3UE/RtoRMA4A68UNEQqA5KRayhOQBQ3vve9yo0xNPZAi9wj6pVPlDfKmvgktc5VrN80SxUz67Ma3kjQeVk815AKVANxnRmASrsAXmA4pAx6AVSUn0AZiiNNoUqz3/omT9y5MiNN96IiS2tra2IU2V+lFn6Wsm3ylSgDGEw7H/aaaeVi4pS2XpgVhWmlkxNTc3KiBISCoGbjTag5J7opgQoX0AWTHuDeGWhFB1IjkGcs846a9bwmSL79NNPP/XUU1BmNdlBHNBH/yWmWmA8FewUkTLH5rhQmUKrEN3Y6HKyxlDENajUdmVmxZo5ZgO/75FHHoFyKp+u4JqvEHJEUgsUUF2tLpXBQa+HXSpiDvhlzceZUQ0jnUljktfFF1/c3d2tHi2Lu6KJJPB3cFRPAawLweBpL3oRzGRZHBF5usouN+Xc+FDTq1/9auS/cpIbMAW1FurDWwLFgxmfsAq8IXGG3CCC/5XWjO40TGN92cteNpf+vCEgksvnkOSiiy7CrNky2XkjVwZCv7AozGoDBVWElU9rvFZZQz347Gc/+/GPf3wWNbCDrvAavPKKK6MYAgMaSk1TkqiCBxCfeeaZmHW6ZcsWZAoU1FNFGckhOc5lyVUqQBXGjMfGxlCBVKpZrOfeKmGeffZZTJ5++ctfrggqLnMjH9MhqgaWnTjkRal0bqZgigiEKjweLzpu4VBAM8uyydk0S4jC8FJLB20xzFd88skn1YuNmieYWazVBYZ+MGMT3bSY8osIyy0XxjccmPa1uXfzpz/9abxEqzcQlYWOjg5kfHZ2lrq3B1YgPeADLgbmVp1yyimzmO7duxdwC6Wg7l5zzTXwt9HeKZsE0uKgTqWYMR6ECReYbal0PYvUvLdgjVKHyuZ9Wk0gBKgm2nLjgCwGAnEslPCO229/fHLS7bKcrHK9QULACqb/nn/++QulVeGVkuMar1b0MpZ1u3ja8lO4NniHP/jgg1A7rK6SZjnOsX4BfQJwDx8+DFelDNMLZYr+Iw/UCs5hwesQDqDqK10oyRLhrN5WHVNVHTLAMb/ttttQWMASDCGTGagIdqgiQBw4vHhfKvNZQbmAF+jnc5yVu+J+mXK1XCKPFY9t7luBBDigjvKhQsARSjn11FM///nPv+1tb1P1XqkJESrk4SsCRYhZ3pWB1VyDI6C9zLfKi2oo1xJHiaGUUD4DB3GNszioqjbNwwRxYAw4g4hKqy4UzcoEeAplIhwGANVVj8hlIigR9Du88MILqmjK4U1woZSjZugAI1SOqjBRNk5xQJlom6P1hPJCWoSUdVJ5XQ5c+GI6IcTALJXrr78e3iUkIR2Aysx3G0oTCPj+979ffV2xMNklnxDOwAXyg6Y6qyq05BmCUbaZuV6SHyLYDCsqA6iayAbO6kIVIeRDNvDq/shHPoLvPnBdlq9SdCRBd+Pjjz+uSJXjLH6h3B/UAOFZ7UkJtjjlGp8qUcCo8kAgbkHZeiuq6znlV06i4uNWXSiacwVDJw6GLZQy5z5dKATxcUB1Bw4cQF2vLJeFkhxz4bAlZO3gwYMYc0QGoUlkGblQ53mzo4qmHA2Yi/Z7OaFKgtt50y4SqFQN+L78/2/vbkItq7I7gJdVZUYdcSbYUv0eDZLOTHCmA40ICiKCA3GoKIqCIwfqzJkjBT8Qe1A4EQQRROhAQxqFpBNID9KDxi9IBTqTNOlESHdA1KrKb+117777nnPPuefe96rqGc6xPG+fvddeH/+999qf59yf/9zWNf8iBh/Xcoi0yu1lnIcffphzEYVglTA5VHKFpRDQ6ao5JGb9mXIPtZbXZJlBeDyToI7IRKoTmepJ8tqSA/tWWyyzs01MUiIQYLZ5kMF8J/vIoyZhRYbDsrZSuQ3Rk4LGjPHWW2+VcYjsasSHvYGK6h3/F5EJQkqvtgi08X3dpKJxIJ1rAKDm0qcRk0wq25YmIy0iWKWymrNVYpv3JIfTkK+//to7wdGurlv82DudWxzWkamlEZYhM0m8cOGCru6WW24ZL4gRKBRJlrfh5DvvvJPL6ujXRS8Y8AImPqY/N9544xHKgqsKAyyO8In2mywU4DyiZE1Si7zLagpWY3YKXJF2tRV6b1t/8MEHX37xpdeZTARsMC+UNhW87rQ3wZzRMj6cslYEdBBYbswXhceNT8Ug62SR91PvvPPOcfornJqFHr1U1LnsjuK9pwxNFZ7Vzr6yt6UdWeapsSsVKiryEtngVvurjTWV2M8++8wK4h4r/1N1vUZ07FI9WJ2j8wg0F8RMNtUK7uO6OJ6Z7+4sRtNJbDhsHcTS4ZQ31xvea8Go56evswZsTb3tUFuiVMZrhFb6bYkaW0WB7nmFnWH06dP2yM+fP587fVuZQQAgDz744FNPPbXf5uAVcStb9bZVxBd+9eWXSVmWGFYlDQWL5Ib06nenBgxxRibLODGwXEmjERoVX2O3srJ43SwVoTiWnbyLlqMDTOtaxkzGXbw2Y4AGJSsFwlVkZkEGdt/TsV5uGy7HfZm3Uv7gAkxjghbivB/Ds32mvdUWkTowAzSV7YvPP//+u1xAqemLAD66Lj7XSoeoClqXbtozbh01Ml9qa9ztYzpWiI/mU7qq8Iy22LuxvWc6iONkNRBtcNdPIiS/vR1hT51pEam0ah3fyFm1m2gICbS7EYxe18uH01guqIxZTGpGLgTqEAIBV2qyk4irTLzepw4KZ4j65xsIKgG7Ct1y0mQcVJqWccrNN9/8wgsvGCe2iwt1MFNrOd+UM9CTj88gIusJuXeeVmcK0+rFcKCZ+tl/vfnHP/7+4ndlx6b1zJEpvQ/3pL3JKybvyfBY7hhSUo9rmVYxHbsI/EdaR02CRrYR9LVW7Grg1XYrqZ9C4pJjkLIYpi3UFuOfeRC3aoVlJ2Ow2unaifkJJGYsrfJuScW3kbLGt/GlhQQNwB3MM7W+/fbbLRDowBeVhtNJosJKlbJebhkCq2Se3E6g+dNVMjf0ElCeOpGL4W1eUJgR5wEFH4iwWbLRrWQWIDtt2GfSMtw7DGqXZVrfHnTcUbij6t6ca8YiYdJNlqqAQOUwMXBt3ArlVPRlfV6pGp1r6UABeuyYrsT8vwhVfJS6l4AsBGo5urswrlSDJHDnI2644YY86mZozb/Yr9a2cv0lAZcJpcu4xtqk8x3B5grU7FDvqlypPFhsujOKTNaJdKX8DIg0N7Q1aQR9xx13WKRELLKjI2I+1y6148gLkDsUR34kwgmMRx55JI+YH5nfkRhUlHDpo7GV9TVzK42uiyFlxCzdIqtaw7aaMZVgecAR/RXhP1WP46FjAtCslTjJZuYsnBd/LVBlGP1pOcYpIo2xrTv+5Y9+ZI3S4mRQVrqCidZl1yBfEaopP0SsUmdH4Gzi1KFKWiTJBQ0OwgsQ999/P7cr5rbbbjs8PBTZoldB0BFae7LdZhOzMFhW1kpxtACePvls6JTMN+pwNAk75D6i9KvtVkCWxv35f/8cTkQHUn2JBHU8fEsco5iyDbQFp8IteWbrISzaUohtmt0WLic3OcE0uDAyh1hWx1R3Megr08wzZ89YaMxVWDRO7h4cHDhFBIWytb1wLJkdMPnujM04DSlF/ODQojblvTXivAlfEEPj5eArin5ZB3gQa3xOM4uRxW6uRRZA1QWUtuwR87neafZpheTQph4xjCEl+Syfv8EqFT4iz072bA0R2WkX/ceS8yg2Xm23kqYaZ/7hP/4QVT9MiivjI1y+VqsPUcaLyG1/SqbYF2wvz77EaaK1/JdH0KIhxeEFlWwb2xOerhmw18ahWu4EkHC6AHemlX8Br8ZweHjIlRjDJ4H+0F6Pz7jGVMjnEdeRQMOh81NeWQqUlt3ACUdjo3p+QcF2Bl9QrciAe8Llftddd+WecXLwUptdoVxa6vPU2kHNVXFYUivbPuXWGKJdlQwrzG1Q+pjTRx99RAExrkqwXyBkqAXln+ZgbNprF7WBNIHQLIZyeytwzdyKSW9VugZgJ8weY3Xv6XlsoR9B1sJbLYnkgImDypcswS3+lXD00XF+WcvRukYY/iCSgOM4RracIYXBYGyfR1FUXFmMa3z52bBfUhnErSp3MkFmvVzPqZYLt6UzJOVExVOYmflNAwfh0oRqRRvQdXkRHCD0T3BMQ3wWf6jWyevMq21mm81oKqv9zO9k90gTp1ocMHEucUiH3WRxTGVIykP40IGDM3zFeruoDWQtoKFYZrJyvJu4JfVVOrcCshYmK4IXLlygg0iVuy2hJFPpjUWXSm75i4N9Jcv4nbWu8PWaTHr8EsjugVux22rJHd+OYlsknZjkVNs2vMXaoc8Ah7coR6GsBTiNkp121l2rJ6YGYU1857zbJaLhdq1KOAuz90tu1xwqVnuRh9WtJrWmsTGsv3zZ0AOAuiWPUgV8+XHEmUpCD3bIOKuNQ9bYVsp4OOlTgRRa6UXyLA71v/3220aXlpD34F+5RaA0gVhVuP6sZelzPzmnly2tYo1q9bBca6OkVxN5lv0UuEpupYXS4uKHH35oIxOCfZ8ihkOxxChLhX5ldi+EzJTKqxN+JEmR99I3R6DMPioV20x04mMt1jpJAbE6wWlVTq/KUg7CbkhrqSzaj7FLINwdrERjk8v0ylkYe9Kdr7q0Ik5gOJsB6yhvqJK1KO+pbcUBpTNy7733Xq02khKZSrPRQDWHM3K6xwvfGwnGI/VqpGCSWqXCiyzFCyhNry+9/vrryEzKEEgdV2lEolWF77755qd/9dOXX345X8sYIa5JxKWGNWanwPG7lURhSAnqeh3OKzwKvvafCVniK14nkD8xMcSkEw99eBmwCdQq0qHpP+5dWjLWq892JGbvmtHnmazs1+Qx8D5BxJThSozSLhkAf1tqbDxlQhm4Zd8UtbZzMTBLyo/7HeWLEx22Ux6JnkLW0vSBNRwzoFCXNNGkRFM514Ck3Hse51ZTa0YOy+6bD+IY1onsK1CztAFkqqhzQ46YWxGjXmpV2Xp1IOmpbTjvRynMuayLIXBNlNJKNLdT3ITqG5yXrWis02x+OoLQ436DWatm/NDFTztqBSzzXr6wIpUGpHHCfMSuVZnEzdgMx6aSw+mDKWxUPLKPG9sHYZDjXgmWP6yqrt6s7zFZtM4yHLFKfea6s+7+QUohlamPFry5Dad1FiZN8lVKjz32VyRiV0gT5FaVVNX0x1ymqq1SoamPSZ+PJHauDlnLvIYx9F0bzqvGTAzIaAL+7LPPGl8Lu1JcAJwgiyi8dLpOOb755puGRVNUGlJg75IjdG+5xzZaoQHva1ponU+rq3gJ6BDM5O3MGZcapzhj3vqUCgcOajA0nVy2SiJejOyVYCigWtgNzd2QnYCgRs69q7ZEDElMZchiIHG55DldnIz5hvuQFbvG/+rvfvVv/3rBmwgVpRqorGAnMj4VHKOUWEaJSgbV8mfIpyABAgd0+eKlf/r1P3rd3EJmC1Hlf7wBqjpvZuViIlBVJfTgTbXdTd+MiNWHHA6nkv1izez9+NYoKiXbim3m8shtGS0eHBxkUlK2eTeELXWdit/lsFT85JNPGvL4hey/8H5jPW5uzyZPKRJTDuD5ot0bb7zxzDPP+Dpait7AdiRKAyqr0ZbhOEHluFMnwSjYTjJtXYfjcStpMN/hl5ItZa9m4+r0xYvqin0fiykaJMr0KdQQrsqk6mw+d+5cfnFyIojJ0J6cYjZ7wqHyHAkQhxK9cwqHh4ct5RCIqY+aai3wrbfesgDW5hoJY2iYZsHIjzeyrrV6JNdQUqphqPLpp59kCzRTR5xquyf/eFxK0jKituYtHrLuBviLpGWuVqjc2urv//33Biy++Z78EaQCLeVxhYlwaoNRWt1S9y28ZdFpmTIrx5yP0Nlakn6+KjzCIm3ZKEt28S4BV8tEpI5TbddNPvDAA6ktGvEtWRtepEovDHXANhmeeOIJvu/Xf/8PMXgMEZl9jQlBnJcx6YsvvnhwcKDSpgNN5iMSFwR4Xj6l0mqAr7zyih8mtiGaU99WvZGwY9nWdwKCdRBGskg6HreSMhj8x//849/+4hcFoxJXIGKZdkUtBDmQkVa1rNAIWB9xeFnbawmS+cgdK8N106vKM7J3M+gISvdcmlsWZHyh+vTpxx57rC2qbr71ZyLY4kCE10N6ItZJ61NxYZypXXNf0GBmq2elmhjI7BT44vP4gnyi12G4eCzTn1IZSp0NuWXnJyQZrwQQKIESPKOTXFXo4HA5vn3zp//506effHLPPffUXY+OrIlqTyHD2Uj2l78sP22xzNADeVGORQ36n/7uu2+hoTM/PDyUSUPlB9UHXmaoj+mYUAZvK9tDcpHakrU4B17F52qrlkgc0l0qO+VvsFbfcPDdA+836iF++y+/tVPTwL/ig4xTcIbA7/M999xzJlBiqmICHlfUm0IIiOPIMLFyj6QH6YZsmGLOdTrBZEXC0Z4NRMNRU7dOhjmspWiuCknJL/6VRHGgUUcFsqSDqlyZ2aPLDpED5ra1EG8Fa01qKScckmfJW9oIbFb//P5t9BWnfNCkRMYvZV66ZAAFcdymSEz+BIUbwmrFvBXUD6OLY2kMTLWnyOoYWB9Jz1Ow//Xf8ZMdlWHq5o4gIykZepb6ITLjJQrkCssyJpNWGWUpGgZLaV9+9ZUamTyv9J3CJBbpRdQGhJfluMA/HOK33yx+LF12Z45pK7Bisq50WFuuiC5YOQeGvr2k10wtH+F8dAe+gRUXpjjQZ3zNtTUgiyrhM8++afKzv/6ZcCu0zU4VLcK7SHaductdZSW9uwvbrPyTqm6pKgZKPLWMOxl4zG4lqkEoHleEl640A/UukEZmQFjb9gqczrz2islkpzvYAgrQRZPHe+0KVkERV4SjAkcDi/Au14JpGLjGf/ChyCQh5YbUptbuIjnkyetNf0uSsfbhCphXl9SIK8j7QQK/83Lx8qXvLzkI5dhmnISKw1AlJgNxVLAc6KRcZpQ3QUomBkRmtfZT0/muJF2ZUOqwwifGTOK6VyuctehLica2jhmQRYQ6jmspaxgZq7XkOBhWToElRPUeSWUPnmC58p7Zl6JCKE+kMzdWysiaVAWNB9DjbJf66aefvummm0jEsJclSgOZJK9im30b0MmIuEe5IaIqVk2ICuNh2xWVYFmzKpMNAgaijnMSRASV6ZNfe9O8NV36p36pXFUj4rNClB/WM7rzqwXOg4rvUNYsQ4GoUnKV5hBBHiO/OBcJq2uhR0VLaZVamxSEpkqrDOuhJGjJigHrRJueooCKsZm4j4FLN0S69qA3Nvy21BeLsJG0KH+pROTddNJEuv/LMh3pGphlCItfmXGhJyjwWdqiQpPoOywOpLZVv8NqSX6kvxXeDMQ9NOvyFG+s6Z5lrhw9IgILD2gcsTCkmy/AkaSyASfJgklFcEEfNYXVhgZ2YTp7bdVqUBhEkJhH4zYLbXEM5qFke6U+jr3xLHZIeXBy15WnTPncXzSlS75Qp0wt9yrfqknLsB+uZBmgQTTRrdeyxsrl2kreIdjHrRQhg5IkJFjwUOyLYivKZXzVIB91g34JxeewrAxJSvpK0wQKGJvEhsQirBAHxSaqFadQq/QAqyhZ1rFL3VqFEaRuee/Qt6z64czSid8YSTMzyFLVl3+KbqJSAZtQjsAlQRkYLupI2BRAhBCuxxcDH3/88ax8KTdM3gSMo+ivvvqqUxIaRlKmoGBWWu/1Z2OV2ll+K6NZ6VO/vGeWne4jJVRRTR2G2LZkSZPKUNIBbkOVoYx8wcHBwfPPP29oXDNWbm0uDO2evPvuu37DV64WvaqbQPpczsV0psYnH2auGnB0ewVP+3JZSEthBMloOZ+Lf+2118w4ekOtACyrBU0cJfVkQbBzpnzJL/4mTwGc670NCG+9ElJkGehYN559sAA62daYlgrcIWgf0xgxNVfaWR+TGEaqsvf0YaQnbDl0wrJnQ8Kxk5SPpfw2J7X0qYYS8p8K0Sa14dQ/ReY9Y/LeUk4Jp9UL0Z0MkIzqFpUmyZRhSBmYmkHM2yjGF6fPnF0OgsNqDgOnEorsh4eHjrHZa+hI2/jotNV9991n3h4KFFb4pAPKu1zkWkS49957rTKGevtexdCwt3Ie4TQiKMEMhQtcAgYOthptJHGpC9/XuNEsRLJQssIS3kjpV5V8xtWH2n7zz7+54JP9fnSd9ssrdXO3MMyRWQrlraqUDKBfmZmYqXHqccNnyS+arqVf4yOnfrkzjykCQV1VwE681Pfff5/r0Wp0G4omxVVWxxvYj/lg0+ool9zTVLAoFfBM+xecZI8sBSwFb4TicuzPuaCXXnqJT6kgduSuHou04DNVbk89EUUTTFwrzr1QprY0JUOP4TRNmB1yA4OuUM/xgrX/ypWKJFneF4AX3MQ4bO4Xy5yazU9mrvBHgHlhA9i77777oGxGyj5+qZQIePY81q2QFG3o0phGq+vPnPXhYR4NcUWrDdfIrYFgnlcjohW3PVxgXHJZ/KWMN5jMWbJmLm1Yiirljsb0hxtFk4aLGb8sedz9N3cHLInuus7VWO7MKJIw3DIyBLeVzWNhEvFF/5pXQIyMToj4rZuHHnooVaIkK8KQRijPcub0GStmfmPIoQpWoKqsgnW5kmcEm7y7hZd8sEqjgtnka7fRCtacgmUuS6ymsxOlcNvsTwhg51SLF2pVfbXZ3hVc6D2uNIJwRhe9xnJ6uty+ejQhKGHCSgtE0xed4jI+iQPRqeb2xMa5VssggUAnDZTpZHVrLXtC6eaelSZ1kDe+0vy73/HKp3SerULRMYYhBtLOhjv4k9urfdM6CnhEc3h4qA834A9BlHVrtUFz6pRvR9uMcFLRIAiZXK4+t/EYGdNerYVzHCceSc2BQ+oAKMDaCrUzbV+P4YFFgTPJkg9i4PhEnlUVMZl3RIQkbHHztrcVDdPAszBfK6XInSJsP1m41U0mJjIy07WiV1ql7sXPpS9/UiNhTB1k9Kh1PProo8YjH3/8MW39LsWKQ9ItqXUw58+fN0bjhnJZB2WVmLmiePbFWL5L4XvDkDQKzwy0igyFp7qVzO9jAmqtIozpaw/iIRn8tPEkCLwQaRnF2MQpA6xyMj+ublpimcprFICOQdK+SFFP1iy/ZGvXSVWgWKsD0wz1nUckLrIszdy5DVU4yrq9GqPrE1fLxgE5gkzLnZSlWHUTCFxS6ZY+t+ayRe3wVXzpu/edFHyTzAGtfPUhXVLVYmOAIAYaS5vb194+0FijDtZ2ScTXJrGWPvlBBXAoycLk9XHiRrY9ypIuyyIpo2ZLquqkM0HYAWejW2EmzS1/mGjkL1RMUVkuZCqe04B+f+YbG8nNxGrBYQm7RlGryuHhodFfxb/GY+jyYx2hZFMTkpUklCqeH94WYwWtbNwVR78QVv/EMIZEM1OOXlNSaVlXKy1WSHGLP3tfxRH7zFV2JDuxWXTdW/OEisVsH/jQEipSWzMiACLLuQa1ShsOl1Su5DmFA6/pnU7Lioh3Er2ReQVd07V019/SdkJJ/6PrQ+k6okQc6G+MZp+LxNZqSBq3x7vq6+WPpurWmuCIhBVWW4xtpDAR7qRoV751RlaHYPwxVfI+tMJNx9E3WYx+XjySlZkAAAHRSURBVN2trWWcZyc1RYhUji6qdgh2fcxycTda0fIderavbLu3ap6YJNuUjkyTrppslVgpeXMbYfbLclzQZkw1AA72WpEUkNOSmn3qUFWSUVvg9HUwlXnLTTjjDUbYUj8W06HJR5RG/V53zBKxtERJI518TD7uG/NOjMQKYrkaLUsL6TiHo7aZce4bU6up07XcyGeOHEIgq9RQ6sb4PbJs5DMUeaX5D8ntxJ8QNVKrqkwNiBd2/6E3jZ3dSprdKa3pj3vjdUS5QxoO6XMlxG2UNSJoV/q0cWOuIfPb+BFNKtnezCuHKVIq8fRAKraV+d7678p5hH6KDiPZO5i03Kbn6jAZeWz5j5B1knZ2K5388+OMwIzAjEAHgdXuVCdhfpwRmBGYEdgPgdmt7IfbnGtGYEZgEIHZrQxCMyfMCMwI7IfA7Fb2w23ONSMwIzCIwOxWBqGZE2YEZgT2Q2B2K/vhNueaEZgRGERgdiuD0MwJMwIzAvshMLuV/XCbc80IzAgMIjC7lUFo5oQZgRmB/RCY3cp+uM25ZgRmBAYRmN3KIDRzwozAjMB+CMxuZT/c5lwzAjMCgwjMbmUQmjlhRmBGYD8EZreyH25zrhmBGYFBBP4PMX3agKnQUw4AAAAASUVORK5CYII=;" vertex="1" parent="1">
                    <mxGeometry x="460" y="420" width="40" height="32.65" as="geometry"/>
                </mxCell>
                <mxCell id="35" value="&lt;span style=&quot;font-family: Helvetica; font-size: 12px; font-style: normal; font-variant-ligatures: normal; font-variant-caps: normal; font-weight: 400; letter-spacing: normal; orphans: 2; text-align: center; text-indent: 0px; text-transform: none; widows: 2; word-spacing: 0px; -webkit-text-stroke-width: 0px; text-decoration-thickness: initial; text-decoration-style: initial; text-decoration-color: initial; float: none; display: inline !important;&quot;&gt;Medallion Architecture&lt;/span&gt;" style="text;html=1;strokeColor=none;fillColor=none;align=center;verticalAlign=middle;whiteSpace=wrap;rounded=0;dashed=1;labelBackgroundColor=none;fontColor=#000000;" vertex="1" parent="1">
                    <mxGeometry x="513.07" y="410" width="124.62" height="30" as="geometry"/>
                </mxCell>
                <mxCell id="36" value="" style="shape=ext;double=1;rounded=0;whiteSpace=wrap;html=1;fillColor=none;dashed=1;strokeColor=#3333FF;" vertex="1" parent="1">
                    <mxGeometry x="280" y="470" width="700" height="110" as="geometry"/>
                </mxCell>
                <mxCell id="38" value="" style="shape=ext;double=1;rounded=0;whiteSpace=wrap;html=1;fillColor=none;dashed=1;strokeColor=#3333FF;" vertex="1" parent="1">
                    <mxGeometry x="430" y="315" width="550" height="145" as="geometry"/>
                </mxCell>
                <mxCell id="37" value="&lt;span style=&quot;font-family: Helvetica; font-size: 12px; font-style: normal; font-variant-ligatures: normal; font-variant-caps: normal; font-weight: 400; letter-spacing: normal; orphans: 2; text-align: center; text-indent: 0px; text-transform: none; widows: 2; word-spacing: 0px; -webkit-text-stroke-width: 0px; text-decoration-thickness: initial; text-decoration-style: initial; text-decoration-color: initial; float: none; display: inline !important;&quot;&gt;Monitor and Govern&lt;/span&gt;" style="text;html=1;strokeColor=none;fillColor=none;align=center;verticalAlign=middle;whiteSpace=wrap;rounded=0;dashed=1;labelBackgroundColor=none;fontColor=#000000;" vertex="1" parent="1">
                    <mxGeometry x="269.99999999999994" y="450" width="124.62" height="30" as="geometry"/>
                </mxCell>
                <mxCell id="39" value="&lt;span style=&quot;font-family: Helvetica; font-size: 12px; font-style: normal; font-variant-ligatures: normal; font-variant-caps: normal; font-weight: 400; letter-spacing: normal; orphans: 2; text-align: center; text-indent: 0px; text-transform: none; widows: 2; word-spacing: 0px; -webkit-text-stroke-width: 0px; text-decoration-thickness: initial; text-decoration-style: initial; text-decoration-color: initial; float: none; display: inline !important;&quot;&gt;Store&lt;/span&gt;" style="text;html=1;strokeColor=none;fillColor=none;align=center;verticalAlign=middle;whiteSpace=wrap;rounded=0;dashed=1;labelBackgroundColor=none;fontColor=#000000;" vertex="1" parent="1">
                    <mxGeometry x="663" y="438" width="60" height="30" as="geometry"/>
                </mxCell>
                <mxCell id="40" value="" style="aspect=fixed;html=1;points=[];align=center;image;fontSize=12;image=img/lib/azure2/analytics/Azure_Synapse_Analytics.svg;dashed=1;fillColor=none;" vertex="1" parent="1">
                    <mxGeometry x="820" y="341" width="60" height="69" as="geometry"/>
                </mxCell>
                <mxCell id="41" value="Synapse SQL Pools" style="text;html=1;strokeColor=none;fillColor=none;align=center;verticalAlign=middle;whiteSpace=wrap;rounded=0;dashed=1;fontColor=#000000;" vertex="1" parent="1">
                    <mxGeometry x="757" y="410" width="186" height="30" as="geometry"/>
                </mxCell>
                <mxCell id="42" value="" style="shape=ext;double=1;rounded=0;whiteSpace=wrap;html=1;fillColor=none;dashed=1;strokeColor=#3333FF;" vertex="1" parent="1">
                    <mxGeometry x="730" y="199" width="250" height="110" as="geometry"/>
                </mxCell>
                <mxCell id="44" value="" style="aspect=fixed;html=1;points=[];align=center;image;fontSize=12;image=img/lib/azure2/analytics/Azure_Workbooks.svg;" vertex="1" parent="1">
                    <mxGeometry x="824" y="218.5" width="52" height="52" as="geometry"/>
                </mxCell>
                <mxCell id="45" value="Power BI" style="text;html=1;strokeColor=none;fillColor=none;align=center;verticalAlign=middle;whiteSpace=wrap;rounded=0;dashed=1;fontColor=#000000;" vertex="1" parent="1">
                    <mxGeometry x="757" y="270.5" width="186" height="30" as="geometry"/>
                </mxCell>
                <mxCell id="47" value="" style="aspect=fixed;html=1;points=[];align=center;image;fontSize=12;image=img/lib/azure2/security/Key_Vaults.svg;dashed=1;labelBackgroundColor=none;strokeColor=#3333FF;fontColor=#000000;fillColor=default;" vertex="1" parent="1">
                    <mxGeometry x="458.23" y="480" width="68" height="68" as="geometry"/>
                </mxCell>
                <mxCell id="48" value="" style="aspect=fixed;html=1;points=[];align=center;image;fontSize=12;image=img/lib/azure2/management_governance/Monitor.svg;dashed=1;labelBackgroundColor=none;strokeColor=#3333FF;fontColor=#000000;fillColor=default;" vertex="1" parent="1">
                    <mxGeometry x="311" y="480" width="64" height="64" as="geometry"/>
                </mxCell>
                <mxCell id="49" value="" style="aspect=fixed;html=1;points=[];align=center;image;fontSize=12;image=img/lib/azure2/identity/Azure_Active_Directory.svg;dashed=1;labelBackgroundColor=none;strokeColor=#3333FF;fontColor=#000000;fillColor=default;" vertex="1" parent="1">
                    <mxGeometry x="595" y="482" width="70" height="64" as="geometry"/>
                </mxCell>
                <mxCell id="50" value="" style="aspect=fixed;html=1;points=[];align=center;image;fontSize=12;image=img/lib/azure2/devops/Azure_DevOps.svg;dashed=1;labelBackgroundColor=none;strokeColor=#3333FF;fontColor=#000000;fillColor=default;" vertex="1" parent="1">
                    <mxGeometry x="740" y="480" width="64" height="64" as="geometry"/>
                </mxCell>
                <mxCell id="51" value="" style="aspect=fixed;html=1;points=[];align=center;image;fontSize=12;image=img/lib/azure2/migrate/Cost_Management_and_Billing.svg;dashed=1;labelBackgroundColor=none;strokeColor=#3333FF;fontColor=#000000;fillColor=default;" vertex="1" parent="1">
                    <mxGeometry x="875" y="480" width="68" height="68" as="geometry"/>
                </mxCell>
                <mxCell id="52" value="Azure Monitor" style="text;html=1;strokeColor=none;fillColor=none;align=center;verticalAlign=middle;whiteSpace=wrap;rounded=0;dashed=1;labelBackgroundColor=none;fontColor=#000000;" vertex="1" parent="1">
                    <mxGeometry x="288.99999999999994" y="544" width="124.62" height="30" as="geometry"/>
                </mxCell>
                <mxCell id="53" value="&lt;span style=&quot;font-family: Helvetica; font-size: 12px; font-style: normal; font-variant-ligatures: normal; font-variant-caps: normal; font-weight: 400; letter-spacing: normal; orphans: 2; text-align: center; text-indent: 0px; text-transform: none; widows: 2; word-spacing: 0px; -webkit-text-stroke-width: 0px; text-decoration-thickness: initial; text-decoration-style: initial; text-decoration-color: initial; float: none; display: inline !important;&quot;&gt;Key Vaults&lt;/span&gt;" style="text;html=1;strokeColor=none;fillColor=none;align=center;verticalAlign=middle;whiteSpace=wrap;rounded=0;dashed=1;labelBackgroundColor=none;fontColor=#000000;" vertex="1" parent="1">
                    <mxGeometry x="426.15" y="544" width="124.62" height="30" as="geometry"/>
                </mxCell>
                <mxCell id="54" value="&lt;span style=&quot;font-family: Helvetica; font-size: 12px; font-style: normal; font-variant-ligatures: normal; font-variant-caps: normal; font-weight: 400; letter-spacing: normal; orphans: 2; text-align: center; text-indent: 0px; text-transform: none; widows: 2; word-spacing: 0px; -webkit-text-stroke-width: 0px; text-decoration-thickness: initial; text-decoration-style: initial; text-decoration-color: initial; float: none; display: inline !important;&quot;&gt;Azure Devops&lt;/span&gt;" style="text;html=1;strokeColor=none;fillColor=none;align=center;verticalAlign=middle;whiteSpace=wrap;rounded=0;dashed=1;labelBackgroundColor=none;fontColor=#000000;" vertex="1" parent="1">
                    <mxGeometry x="709.69" y="544" width="124.62" height="30" as="geometry"/>
                </mxCell>
                <mxCell id="55" value="&lt;span style=&quot;font-family: Helvetica; font-size: 12px; font-style: normal; font-variant-ligatures: normal; font-variant-caps: normal; font-weight: 400; letter-spacing: normal; orphans: 2; text-align: center; text-indent: 0px; text-transform: none; widows: 2; word-spacing: 0px; -webkit-text-stroke-width: 0px; text-decoration-thickness: initial; text-decoration-style: initial; text-decoration-color: initial; float: none; display: inline !important;&quot;&gt;Cost Management&lt;/span&gt;" style="text;html=1;strokeColor=none;fillColor=none;align=center;verticalAlign=middle;whiteSpace=wrap;rounded=0;dashed=1;labelBackgroundColor=none;fontColor=#000000;" vertex="1" parent="1">
                    <mxGeometry x="840" y="544" width="124.62" height="30" as="geometry"/>
                </mxCell>
                <mxCell id="57" value="&lt;span style=&quot;font-family: Helvetica; font-size: 12px; font-style: normal; font-variant-ligatures: normal; font-variant-caps: normal; font-weight: 400; letter-spacing: normal; orphans: 2; text-align: center; text-indent: 0px; text-transform: none; widows: 2; word-spacing: 0px; -webkit-text-stroke-width: 0px; text-decoration-thickness: initial; text-decoration-style: initial; text-decoration-color: initial; float: none; display: inline !important;&quot;&gt;Microsoft Entra ID&lt;/span&gt;" style="text;html=1;strokeColor=none;fillColor=none;align=center;verticalAlign=middle;whiteSpace=wrap;rounded=0;dashed=1;labelBackgroundColor=none;fontColor=#000000;" vertex="1" parent="1">
                    <mxGeometry x="567.6899999999999" y="544" width="124.62" height="30" as="geometry"/>
                </mxCell>
                <mxCell id="59" value="" style="rounded=0;whiteSpace=wrap;html=1;dashed=1;fillColor=#cdeb8b;strokeColor=#36393d;" vertex="1" parent="1">
                    <mxGeometry x="50" y="296" width="181" height="250" as="geometry"/>
                </mxCell>
                <mxCell id="58" value="Production SQL Server" style="text;html=1;strokeColor=none;fillColor=none;align=center;verticalAlign=middle;whiteSpace=wrap;rounded=0;dashed=1;labelBackgroundColor=none;fontColor=#000000;" vertex="1" parent="1">
                    <mxGeometry x="69.99999999999994" y="438" width="124.62" height="30" as="geometry"/>
                </mxCell>
                <mxCell id="60" value="" style="aspect=fixed;html=1;points=[];align=center;image;fontSize=12;image=img/lib/azure2/databases/SQL_Server.svg;" vertex="1" parent="1">
                    <mxGeometry x="106.5" y="370" width="68" height="68" as="geometry"/>
                </mxCell>
                <mxCell id="68" value="" style="shape=doubleArrow;direction=south;whiteSpace=wrap;html=1;labelBackgroundColor=none;strokeColor=#3333FF;fontColor=#000000;fillColor=default;" vertex="1" parent="1">
                    <mxGeometry x="482.23" y="296" width="20" height="50" as="geometry"/>
                </mxCell>
                <mxCell id="69" value="" style="shape=doubleArrow;direction=south;whiteSpace=wrap;html=1;labelBackgroundColor=none;strokeColor=#3333FF;fontColor=#000000;fillColor=default;" vertex="1" parent="1">
                    <mxGeometry x="560" y="296" width="20" height="50" as="geometry"/>
                </mxCell>
                <mxCell id="70" value="" style="shape=doubleArrow;direction=south;whiteSpace=wrap;html=1;labelBackgroundColor=none;strokeColor=#3333FF;fontColor=#000000;fillColor=default;" vertex="1" parent="1">
                    <mxGeometry x="634.61" y="296" width="20" height="50" as="geometry"/>
                </mxCell>
                <mxCell id="71" value="&lt;font color=&quot;#000000&quot;&gt;2&lt;/font&gt;" style="ellipse;whiteSpace=wrap;html=1;aspect=fixed;labelBackgroundColor=none;strokeColor=#36393d;fillColor=#ffcc99;" vertex="1" parent="1">
                    <mxGeometry x="502.23" y="310" width="22" height="22" as="geometry"/>
                </mxCell>
                <mxCell id="72" value="" style="shape=singleArrow;whiteSpace=wrap;html=1;labelBackgroundColor=none;strokeColor=#3333FF;fontColor=#000000;fillColor=default;" vertex="1" parent="1">
                    <mxGeometry x="680" y="362" width="130" height="27" as="geometry"/>
                </mxCell>
                <mxCell id="73" value="&lt;font color=&quot;#000000&quot;&gt;3&lt;/font&gt;" style="ellipse;whiteSpace=wrap;html=1;aspect=fixed;labelBackgroundColor=none;strokeColor=#36393d;fillColor=#ffcc99;" vertex="1" parent="1">
                    <mxGeometry x="723" y="346" width="22" height="22" as="geometry"/>
                </mxCell>
                <mxCell id="77" value="" style="shape=singleArrow;whiteSpace=wrap;html=1;labelBackgroundColor=none;strokeColor=#3333FF;fontColor=#000000;fillColor=default;" vertex="1" parent="1">
                    <mxGeometry x="650" y="231" width="130" height="27" as="geometry"/>
                </mxCell>
                <mxCell id="78" value="&lt;font color=&quot;#000000&quot;&gt;4&lt;/font&gt;" style="ellipse;whiteSpace=wrap;html=1;aspect=fixed;labelBackgroundColor=none;strokeColor=#36393d;fillColor=#ffcc99;" vertex="1" parent="1">
                    <mxGeometry x="692.31" y="218.5" width="22" height="22" as="geometry"/>
                </mxCell>
                <mxCell id="81" value="Reporting and Visualisation" style="text;html=1;strokeColor=none;fillColor=none;align=center;verticalAlign=middle;whiteSpace=wrap;rounded=0;dashed=1;fontColor=#000000;" vertex="1" parent="1">
                    <mxGeometry x="730" y="170" width="186" height="30" as="geometry"/>
                </mxCell>
                <mxCell id="83" value="" style="shape=singleArrow;direction=north;whiteSpace=wrap;html=1;labelBackgroundColor=none;strokeColor=#3333FF;fontColor=#000000;fillColor=default;" vertex="1" parent="1">
                    <mxGeometry x="840" y="300" width="20" height="40" as="geometry"/>
                </mxCell>
                <mxCell id="84" value="&lt;font color=&quot;#000000&quot;&gt;4&lt;/font&gt;" style="ellipse;whiteSpace=wrap;html=1;aspect=fixed;labelBackgroundColor=none;strokeColor=#36393d;fillColor=#ffcc99;" vertex="1" parent="1">
                    <mxGeometry x="820" y="318" width="22" height="22" as="geometry"/>
                </mxCell>
            </root>
        </mxGraphModel>
    </diagram>
</mxfile>